<?xml version="1.0" encoding="UTF-8" standalone="no"?>
<!-- Created with Inkscape (http://www.inkscape.org/) -->

<svg
   xmlns:dc="http://purl.org/dc/elements/1.1/"
   xmlns:cc="http://creativecommons.org/ns#"
   xmlns:rdf="http://www.w3.org/1999/02/22-rdf-syntax-ns#"
   xmlns:svg="http://www.w3.org/2000/svg"
   xmlns="http://www.w3.org/2000/svg"
   xmlns:sodipodi="http://sodipodi.sourceforge.net/DTD/sodipodi-0.dtd"
   xmlns:inkscape="http://www.inkscape.org/namespaces/inkscape"
   version="1.1"
   id="svg1064"
   width="1304.3346"
   height="711.25195"
   viewBox="0 0 1304.3346 711.25194"
   sodipodi:docname="tree.svg"
   inkscape:version="0.92.2 (5c3e80d, 2017-08-06)">
  <metadata
     id="metadata1070">
    <rdf:RDF>
      <cc:Work
         rdf:about="">
        <dc:format>image/svg+xml</dc:format>
        <dc:type
           rdf:resource="http://purl.org/dc/dcmitype/StillImage" />
        <dc:title></dc:title>
      </cc:Work>
    </rdf:RDF>
  </metadata>
  <defs
     id="defs1068" />
  <sodipodi:namedview
     pagecolor="#ffffff"
     bordercolor="#666666"
     borderopacity="1"
     objecttolerance="10"
     gridtolerance="10"
     guidetolerance="10"
     inkscape:pageopacity="0"
     inkscape:pageshadow="2"
     inkscape:window-width="1902"
     inkscape:window-height="1031"
     id="namedview1066"
     showgrid="false"
     inkscape:zoom="0.51289062"
     inkscape:cx="585.73717"
     inkscape:cy="246.97688"
     inkscape:window-x="9"
     inkscape:window-y="40"
     inkscape:window-maximized="0"
     inkscape:current-layer="layer2"
     inkscape:snap-global="false" />
  <g
     inkscape:groupmode="layer"
     id="layer2"
     inkscape:label="balck"
     style="display:none"
     transform="translate(76.683522,-278.86523)">
    <rect
       style="display:inline;opacity:1;fill:#040404;fill-opacity:1;fill-rule:nonzero;stroke:#555555;stroke-width:1.88976383;stroke-linecap:butt;stroke-linejoin:round;stroke-miterlimit:4;stroke-dasharray:none;stroke-dashoffset:0;stroke-opacity:1"
       id="rect1129"
       width="1682.62"
       height="1370.6626"
       x="-196.92308"
       y="-132.38544" />
  </g>
  <g
     inkscape:groupmode="layer"
     id="layer1"
     inkscape:label="Layer 1"
     style="display:inline"
     transform="translate(76.683522,-278.86523)">
    <path
       style="fill:#ffffff;fill-opacity:1;stroke-width:1.76302528"
       d="m 660.43555,278.86523 c -1.18008,0 -4.61181,1.88442 -24.61524,13.50782 -4.1,2.38247 -9.9221,4.33203 -12.9375,4.33203 -4.78929,0 -5.48242,-0.60298 -5.48242,-4.76953 0,-2.62321 -0.91751,-5.24954 -2.03906,-5.83594 -1.38788,-0.72592 -1.60794,0.88012 -0.6875,5.03125 1.13195,5.10688 0.87277,5.94134 -1.60547,5.13672 -4.04767,-1.31431 -5.60089,0.37343 -2.64453,2.875 2.4744,2.0937 2.00759,13.77929 -0.55078,13.7793 -0.74623,0 -1.11866,2.55396 -0.82813,5.67578 0.29049,3.12182 -0.29692,5.67578 -1.30664,5.67578 -1.00973,0 -1.83789,2.04355 -1.83789,4.54101 0,5.51488 -3.1165,8.4336 -9.00781,8.4336 -3.73958,0 -4.4082,0.84035 -4.4082,5.54101 0,3.04746 -1.07867,5.90948 -2.39649,6.35938 -1.53252,0.5232 -1.27608,0.86341 0.70899,0.94531 2.05493,0.0848 3.49501,2.17361 4.26367,6.18164 0.99053,5.16426 0.45005,6.53278 -3.67969,9.32422 -4.45049,3.00804 -6.88064,8.29773 -9.70313,21.11133 -2.25524,10.23936 -8.35937,13.72195 -8.35937,4.76953 0,-2.17722 -0.65225,-3.95899 -1.44922,-3.95899 -0.79648,0 -2.71549,-2.37262 -4.26367,-5.27148 -3.23808,-6.06184 -3.31027,-6.29626 -3.63086,-11.85156 -0.14396,-2.49546 -1.05585,-3.72386 -2.28711,-3.08008 -1.12587,0.58884 -1.54294,2.18415 -0.92578,3.54492 1.43123,3.15616 -2.21843,6.92774 -6.70508,6.92774 -1.90251,0 -5.15549,-1.82485 -7.22852,-4.05469 -2.07303,-2.2299 -4.69141,-4.05469 -5.82031,-4.05469 -5.07041,0 -9.22415,-14.91579 -4.98242,-17.89453 1.53665,-1.07896 2.79297,-2.71576 2.79297,-3.63672 0,-0.92097 -1.80662,-0.29102 -4.01563,1.40039 -3.95793,3.0307 -4.06847,3.02091 -7.66601,-0.73828 -2.00776,-2.09796 -3.65234,-4.87851 -3.65234,-6.17773 0,-1.5522 -1.20255,-2.03764 -3.50977,-1.41797 -4.03246,1.08294 -10.99647,-4.40522 -9.02149,-7.10938 0.69284,-0.94815 0.303,-1.72461 -0.86718,-1.72461 -2.92246,0 -7.6836,-10.13231 -7.6836,-16.35351 0,-4.30792 0.59976,-4.97535 3.83399,-4.25977 2.46064,0.54448 3.83203,0.0506 3.83203,-1.38086 0,-1.28597 -1.18173,-1.84674 -2.79102,-1.32422 -2.30339,0.74793 -2.47554,-0.0201 -0.99023,-4.40234 1.96153,-5.787 1.08965,-8.69187 -0.96484,-3.21484 -1.14553,3.0543 -3.24805,4.09064 -7.23047,3.55859 -1.72877,-0.23094 -1.71094,0.31668 0.30468,9.13281 0.93788,4.10103 0.8574,6.89258 -0.19726,6.89258 -0.9747,0 -1.23031,0.74197 -0.56836,1.64844 0.66212,0.90652 2.00687,1.22802 2.98828,0.71484 0.98156,-0.51314 1.7832,-0.12047 1.7832,0.87305 0,3.3235 7.57818,15.92844 10.03321,16.68945 1.94029,0.60145 1.94668,1.18081 0.0293,2.90039 -2.64748,2.3744 -3.2017,4.93079 -0.95703,4.41016 2.22214,-0.5154 12.90243,4.66448 15.88281,7.70312 1.4666,1.49536 2.93429,4.64381 3.26368,6.99805 0.32873,2.35419 2.81286,5.74148 5.51953,7.52539 14.2575,9.39754 23.48604,18.72537 27.49805,27.79492 2.31233,5.22737 4.30944,10.96418 4.4375,12.74805 0.1286,1.7839 1.11134,3.75063 2.18554,4.37109 2.49502,1.441 2.91431,1.22146 -15.44336,8.06446 -14.91946,5.56147 -15.71729,5.68489 -18.5625,2.87304 -1.6352,-1.61603 -3.76612,-5.35644 -4.73633,-8.3125 -0.97021,-2.95607 -3.61945,-7.92895 -5.88476,-11.05078 l -4.11719,-5.67578 0.48828,8.03711 c 0.43398,7.14272 -0.0463,8.26743 -4.30468,10.11133 -4.29387,1.85928 -4.3824,2.07821 -0.86133,2.09961 2.16069,0.0131 4.94804,-0.84101 6.19531,-1.89649 2.58429,-2.1865 2.28494,-2.39759 7.42187,5.20899 2.60813,3.86191 3.66177,7.89562 3.24024,12.40234 -0.44694,4.7818 0.1877,6.94157 2.23242,7.60547 1.73102,0.56204 2.85547,-0.0114 2.85547,-1.45508 0,-1.77162 2.41585,-2.38086 9.42773,-2.38086 5.18444,0 10.78253,-0.44195 12.44141,-0.98047 5.03053,-1.63337 6.23947,4.29304 1.5332,7.51758 -2.23941,1.53423 -3.46273,3.30647 -2.71679,3.9375 0.74562,0.63104 1.43486,1.63389 1.52929,2.22852 0.0954,0.59466 1.74964,4.00056 3.67774,7.56836 2.12821,3.93797 4.01282,12.5399 4.79492,21.89257 0.70849,8.47351 2.41049,17.59564 3.78125,20.27149 1.37062,2.67587 3.99133,7.78374 5.82617,11.35156 4.17614,8.12185 8.27937,24.5461 6.67969,26.73633 -0.66114,0.90479 -2.22879,1.63592 -3.48438,1.62891 -4.24428,-0.0295 -23.35035,-8.29908 -25.02539,-10.83203 -1.2551,-1.89752 -2.02031,-2.02588 -3.11914,-0.52149 -1.1452,1.56788 -2.95831,1.53427 -8.49609,-0.16016 -5.7176,-1.74931 -6.39334,-2.37103 -3.5918,-3.30664 2.91541,-0.97336 2.76041,-1.17117 -0.99805,-1.26757 -4.66962,-0.11963 -8.54984,-2.58594 -10.42578,-6.62891 -0.74177,-1.59951 -1.1648,-1.18402 -1.26562,1.24414 -0.17324,4.18191 -3.29214,4.60266 -8.66211,1.16602 -5.18618,-3.31911 -8.74023,-2.96973 -8.74023,0.86132 0,4.23561 -3.2229,4.1782 -4.82227,-0.0859 -0.97741,-2.60639 -1.81979,-2.92642 -3.87891,-1.48047 -3.5145,2.46796 -7.19717,0.33548 -6.01758,-3.48242 0.70306,-2.27422 -0.0781,-3.0586 -3.0371,-3.0586 -2.19013,0 -5.55838,-1.20939 -7.48633,-2.68555 -1.92745,-1.47617 -3.50781,-1.92879 -3.50781,-1.00781 0,0.92098 1.40991,2.66247 3.13085,3.8711 2.8332,1.98947 2.6972,2.30088 -1.4375,3.28125 l -4.5664,1.08203 4.53515,0.16211 c 3.80166,0.13547 4.3849,0.8327 3.59961,4.30859 -0.65108,2.88187 -0.20613,3.91172 1.45899,3.37109 1.31844,-0.42804 3.1492,-0.14534 4.06836,0.62696 2.71835,2.28446 19.32175,2.37344 22.52929,0.12109 1.61233,-1.13206 3.98922,-1.50474 5.28321,-0.82812 1.68223,0.8798 1.29879,1.57882 -1.35156,2.45703 -2.99463,0.99218 -2.59969,1.24979 2.05859,1.34179 6.89321,0.13629 31.90255,7.47094 47.88867,14.04297 12.06932,4.96176 16.72056,10.09435 17.07617,18.83985 0.10117,2.48873 0.84633,4.52636 1.65625,4.52734 0.80992,0.002 1.391,6.7553 1.28711,15.00586 -0.10364,8.25052 0.74302,19.84533 1.88281,25.76563 2.43902,12.6707 1.03761,27.41027 -2.8496,29.95703 -3.60601,2.36265 -3.52145,4.02485 0.14648,2.83398 4.36986,-1.41895 1.37383,3.97339 -3.41211,6.14063 -3.31262,1.50008 -3.71079,1.35036 -2.64844,-0.99219 0.82176,-1.81165 0.42857,-2.52324 -1.14648,-2.07617 -3.0274,0.85912 -2.58773,13.49474 0.58203,16.72656 1.25433,1.27848 3.57707,2.32422 5.1582,2.32422 1.93867,0 2.31506,0.66035 1.15625,2.02734 -1.57537,1.85825 -1.90809,9.60367 -1.01562,23.71484 0.29771,4.70115 0.75667,5.17978 3.26562,3.41797 2.44064,-1.71381 2.72034,-1.61252 1.71094,0.61329 -0.66419,1.46406 -1.93697,2.6621 -2.83008,2.6621 -0.89085,0 -1.29375,2.37072 -0.89062,5.26954 0.40281,2.89885 1.34643,11.47507 2.09765,19.05664 0.75217,7.58159 1.60417,15.24343 1.89453,17.02734 0.29017,1.78389 0.59946,5.00655 0.6875,7.16211 0.0877,2.15555 0.75336,3.42034 1.47657,2.80859 0.72306,-0.61173 1.15784,-4.56548 0.9707,-8.78515 l -0.3418,-7.67188 3.02149,4.61914 c 1.81142,2.77048 2.56154,6.34139 1.87304,8.91992 -1.03661,3.88229 -0.89204,4.02342 1.48829,1.46094 3.23871,-3.48646 5.35936,-3.69887 3.85742,-0.38672 -0.76514,1.68748 -0.23094,2.16429 1.71875,1.53125 2.05721,-0.66797 2.70726,0.10385 2.375,2.82032 -0.25131,2.0565 -0.59079,4.83395 -0.75781,6.17187 -0.24235,1.947 -0.69918,1.85934 -2.28126,-0.43945 -1.0865,-1.57964 -2.9312,-2.37276 -4.0996,-1.76172 -1.37429,0.71871 -1.69225,0.15776 -0.9004,-1.58789 0.67314,-1.48426 0.38827,-2.69727 -0.63281,-2.69727 -1.02108,0 -1.85742,0.18714 -1.85742,0.41602 0,0.22887 -0.81491,2.81854 -1.81055,5.75586 -1.68624,4.97479 -1.53307,5.26767 2.20508,4.26367 3.7028,-0.99432 3.92206,-0.6129 2.85938,4.92773 -0.92686,4.83265 -0.60563,5.82844 1.63281,5.10157 1.53011,-0.4968 2.78125,-0.19598 2.78125,0.66797 0,0.86396 -0.76202,1.57031 -1.69336,1.57031 -2.73241,0 -3.8097,6.0461 -1.43945,8.08203 1.62562,1.39658 1.20631,2.50768 -1.66016,4.4082 -3.09155,2.04982 -3.18357,2.35335 -0.47851,1.56446 1.84477,-0.53798 3.35351,-0.20331 3.35351,0.74414 0,0.94747 -1.72395,2.10383 -3.83203,2.57031 -2.10853,0.46653 -3.83399,1.88718 -3.83398,3.15625 0,1.89158 -0.47917,1.93106 -2.66211,0.2168 -1.9292,-1.51486 -2.06208,-2.42009 -0.48047,-3.28321 1.61951,-0.88391 1.60789,-1.1977 -0.0449,-1.21679 -1.40517,-0.0156 -2.11214,-2.71172 -1.91602,-7.29493 0.27708,-6.46429 0.7364,-7.16235 4.14453,-6.28906 3.35232,0.85901 3.25603,0.55134 -0.77148,-2.45898 -3.76376,-2.81287 -4.00773,-3.44141 -1.32618,-3.44141 1.80459,0 2.79495,-0.66862 2.19922,-1.48438 -0.59587,-0.81578 6.6e-4,-1.85294 1.32422,-2.30468 1.36308,-0.46498 0.84244,-0.87662 -1.19922,-0.94922 -3.10404,-0.1102 -3.45691,-1.05853 -2.54492,-6.81055 0.63236,-3.98878 0.35774,-6.09293 -0.67773,-5.21679 -0.95438,0.80736 -2.62396,14.2143 -3.71289,29.79296 -1.08857,15.57875 -2.39158,31.60928 -2.89453,35.62305 -0.50247,4.01378 -1.34602,19.70405 -1.87696,34.86719 -1.77325,50.6805 -2.72783,61.17199 -5.94336,65.32422 -2.27907,2.94327 -4.04757,3.63433 -7.17383,2.80273 -2.28244,-0.60709 -5.66094,-1.0878 -7.50585,-1.06641 -1.84475,0.0215 -3.35352,-0.64396 -3.35352,-1.48046 0,-0.83653 -2.58742,-1.52149 -5.75,-1.52149 -3.8335,0 -5.75,-0.80991 -5.75,-2.43164 0,-1.41537 -1.74065,-2.43359 -4.16211,-2.43359 -2.28898,0 -5.73837,-1.20741 -7.66602,-2.6836 -4.00272,-3.0649 -4.95036,-9.59515 -1.10937,-7.64257 1.70799,0.86844 1.66182,0.45088 -0.16406,-1.45508 -4.40777,-4.60033 -0.69097,-6.0586 15.44922,-6.0586 8.54663,0 15.00234,-0.45465 14.34375,-1.01171 -0.65826,-0.55706 -7.4867,-1.10493 -15.17383,-1.2168 -11.7113,-0.17048 -13.89614,-0.62739 -13.47461,-2.82031 0.38216,-1.98651 -0.65626,-2.42922 -4.3125,-1.83789 -3.91618,0.63343 -4.81445,0.13715 -4.81445,-2.6543 0,-3.23886 -4.69055,-4.90534 -6.06836,-2.15625 -0.35146,0.70118 -3.29991,2.85328 -6.55079,4.7832 -7.10484,4.21792 -14.14721,3.33917 -14.34765,-1.78906 -0.13133,-3.37085 -0.17841,-3.37498 -1.7832,-0.21485 -0.90592,1.78395 -1.70609,2.28674 -1.78126,1.11915 -0.0738,-1.16753 -0.91792,-1.71235 -1.87695,-1.21094 -0.98443,0.51494 -1.71953,-3.99702 -1.6875,-10.36914 0.0643,-13.03042 0.54785,-13.59063 19.00391,-22.00586 6.71994,-3.06397 11.18582,-5.58721 9.92383,-5.60742 -1.26184,-0.0202 -6.42564,1.82121 -11.47266,4.09179 -5.22841,2.35233 -9.45738,3.41043 -9.83203,2.45899 -0.36185,-0.91839 -2.77746,0.46059 -5.36719,3.06445 -5.38629,5.41648 -13.28715,6.38125 -10.02539,1.22461 1.059,-1.67559 1.44695,-3.45199 0.85938,-3.94922 -0.5874,-0.49726 -1.60863,0.28123 -2.26563,1.73047 -1.56144,3.44261 -8.50283,0.60121 -8.41797,-3.44531 0.0539,-2.57758 0.20259,-2.5713 2.02735,0.0801 1.71502,2.49211 2.32182,2.55946 4.73046,0.52148 1.5205,-1.28665 2.75701,-3.66837 2.73633,-5.29297 -0.0226,-2.31087 -0.39231,-2.4672 -1.70117,-0.71875 -2.29795,3.06967 -5.86684,0.85831 -4.9707,-3.08008 0.40152,-1.76513 -0.2975,-3.23332 -1.55469,-3.26172 -1.25704,-0.0284 -0.7305,-1.0481 1.16992,-2.26757 2.26821,-1.45521 2.67377,-2.4394 1.17774,-2.86133 -2.64187,-0.74526 -3.13863,-14.098 -0.58204,-15.66797 0.93456,-0.57378 1.99359,-2.50322 2.35352,-4.28711 0.36025,-1.7839 1.44392,-3.48792 2.4082,-3.78711 0.96415,-0.29917 1.24171,-1.2446 0.61719,-2.09961 -0.62435,-0.85498 0.34137,-3.46038 2.14453,-5.78906 3.11074,-4.01898 3.10501,-4.17793 -0.10742,-3.13477 -2.55854,0.83065 -2.91556,0.5955 -1.46289,-0.96484 1.05692,-1.13538 2.41782,-4.80252 3.02539,-8.15039 1.05433,-5.8082 0.88979,-6.04247 -3.56836,-5.0957 -2.92695,0.62157 -4.67187,0.29371 -4.67187,-0.87696 0,-1.02772 1.49089,-1.65272 3.31054,-1.39062 1.90025,0.27367 3.32799,-0.56001 3.35352,-1.95703 0.071,-3.80775 6.32673,-10.66714 11.57226,-12.68946 2.62093,-1.0103 4.76368,-2.58113 4.76368,-3.49218 0,-3.14507 -3.35948,-1.6347 -10.76953,4.83984 -4.08961,3.57326 -8.53499,6.14427 -9.87696,5.71289 -1.89147,-0.60792 -1.9769,0.0281 -0.37304,2.82813 2.00535,3.50085 1.94847,3.49354 -1.8711,-0.2168 -4.63476,-4.50187 -5.24123,-8.65441 -1.0664,-7.29883 1.58114,0.51339 2.875,0.17532 2.875,-0.75 0,-0.92534 -1.93869,-1.91422 -4.31055,-2.19922 -3.2616,-0.39198 -4.75986,-2.09937 -6.14453,-7.00586 -1.00684,-3.56782 -2.36472,-6.85091 -3.01563,-7.29687 -1.74398,-1.19453 -4.44637,-7.07618 -4.0039,-8.71289 0.21068,-0.77838 -0.96661,-0.97867 -2.61524,-0.44336 -2.43887,0.79185 -2.63249,0.39533 -1.03711,-2.12696 2.7209,-4.30052 2.58749,-15.18314 -0.16797,-13.74218 -1.17209,0.61289 -2.88437,0.1081 -3.80468,-1.1211 -1.21144,-1.61842 -1.68245,-1.67501 -1.70313,-0.20703 -0.0567,3.93655 -5.34411,1.96356 -7.71484,-2.8789 -2.07734,-4.24392 -1.94156,-5.33886 1.01562,-8.10352 2.42354,-2.26599 4.10119,-2.71674 5.76758,-1.54688 1.70031,1.19413 2.63079,0.74483 3.36328,-1.62695 1.30341,-4.21715 -1.66449,-4.1668 -10.1289,0.17383 -6.20101,3.17996 -6.45386,3.20027 -3.35352,0.27148 1.8446,-1.74264 3.3485,-3.84041 3.32617,-4.66211 -0.0163,-0.82172 -0.83369,-0.41949 -1.81445,0.89258 -2.75867,3.69089 -4.24142,1.00504 -2.08985,-3.7832 1.0574,-2.3536 3.2876,-4.2793 4.95704,-4.2793 1.66959,0 2.50256,0.73104 1.84765,1.62305 -0.65154,0.89195 -0.27267,1.62109 0.84375,1.62109 1.11656,0 2.03125,-1.52924 2.03125,-3.39843 0,-1.8692 1.69936,-5.41834 3.77735,-7.88672 2.07703,-2.46824 3.24768,-4.93572 2.60156,-5.48242 -0.64596,-0.54674 -0.0674,-2.1229 1.28711,-3.50391 2.69756,-2.75009 1.47286,-5.01629 -1.78906,-3.31055 -1.12442,0.58797 -2.04297,2.85011 -2.04297,5.02735 0,2.17722 -0.8638,3.95898 -1.91797,3.95898 -1.0542,0 -1.91602,1.04222 -1.91602,2.31641 0,3.04963 -5.57291,7.69683 -7.82031,6.52148 -0.96941,-0.50681 -1.76172,-0.11217 -1.76172,0.875 0,0.98715 -2.32117,3.61504 -5.1582,5.83984 -2.91991,2.28961 -3.75264,3.58797 -1.91797,2.99219 2.33188,-0.75711 3.23358,-0.20708 3.21289,1.95899 -0.043,4.43542 -2.30315,6.45901 -7.1582,6.41211 -4.90335,-0.0474 -5.34462,-1.00023 -1.91602,-4.12696 1.9532,-1.78097 1.79356,-2.00512 -0.86719,-1.21484 -2.44527,0.72624 -3.86526,-0.43386 -5.65625,-4.625 -1.31526,-3.0772 -3.09442,-5.00017 -3.95312,-4.27344 -0.85904,0.72673 -0.16452,3.68986 1.54297,6.58594 1.70805,2.89605 2.53455,5.74829 1.83789,6.33789 -2.35793,1.99511 -11.58799,-3.78702 -12.2461,-7.67188 -0.47767,-2.82048 -1.0809,-3.27 -2.24804,-1.67187 -1.31797,1.8041 -2.12537,1.81551 -4.61914,0.0644 -1.66158,-1.1668 -3.02149,-3.03871 -3.02149,-4.1582 0,-1.11948 -1.29206,-2.94237 -2.87304,-4.05274 -3.58504,-2.51963 -3.58538,-1.84256 0,5.41797 1.57936,3.19857 4.53667,6.57051 6.57226,7.49219 3.24801,1.4708 3.61149,3.11506 2.97656,13.4375 -1.33878,21.76586 -3.02409,31.1955 -6.01758,33.65625 -2.65946,2.18607 -2.85233,1.65104 -1.9082,-5.27148 0.73185,-5.36343 0.35476,-7.73711 -1.24219,-7.81641 -1.26168,-0.0627 -0.56931,-0.74122 1.53907,-1.50781 3.27792,-1.19181 3.34659,-1.41031 0.47851,-1.50781 -1.84459,-0.0627 -3.48904,-1.39222 -3.65429,-2.95313 -1.44244,-13.64732 -3.90539,-30.75756 -5.4043,-37.54687 -0.9019,-4.0874 -1.00218,-7.80146 -0.22266,-8.25391 2.96997,-1.72466 3.6954,-6.25454 1.13477,-7.08594 -3.45548,-1.12191 -6.99011,-12.11962 -4.96875,-15.45703 0.86767,-1.43364 1.18964,-3.51872 0.7168,-4.63476 -0.47303,-1.11604 1.15328,-2.71255 3.61328,-3.54688 3.63367,-1.23221 3.8058,-1.53554 0.91211,-1.61914 -5.74845,-0.16588 -2.29499,-7.49379 7.18554,-15.24414 4.54311,-3.71385 8.79345,-8.02892 9.44531,-9.58984 1.91499,-4.58505 -1.25158,-3.14045 -5.42773,2.47656 -4.10575,5.52157 -10.51562,7.9063 -10.51562,3.91211 0,-1.29932 -2.15766,-2.71043 -4.79297,-3.13672 -4.27404,-0.69128 -4.79793,-0.23108 -4.83789,4.26953 -0.0577,6.35973 -2.97109,17.16867 -5.11914,18.98633 -0.89805,0.75995 -4.08224,0.30555 -7.07813,-1.00977 -6.68204,-2.93319 -6.92187,-2.93742 -6.92187,-0.13281 0,1.24121 2.15568,2.71572 4.79101,3.27539 2.63548,0.55968 4.79798,1.91571 4.82031,3.01367 0.0194,1.31032 0.64397,1.17526 1.81446,-0.39062 0.98062,-1.31204 2.45224,-1.81858 3.26953,-1.12696 2.49327,2.10956 -3.82785,4.37595 -9.42578,3.38086 -6.08503,-1.08154 -6.71099,0.26211 -1.86524,3.9961 4.53687,3.49635 9.08665,9.80647 10.66602,14.78711 1.08346,3.41682 3.41231,16.85439 8.10547,46.79882 0.46935,2.99508 1.20778,5.93205 1.64257,6.52735 1.21097,1.65775 3.09499,22.60972 2.93165,32.625 -0.0768,4.90571 -0.14374,10.85079 -0.12305,13.21094 0.0141,2.90082 -1.19012,4.55769 -3.71875,5.11718 -2.20677,0.48834 -3.74219,2.2213 -3.74219,4.22461 0,1.86741 -0.91305,3.39453 -2.0293,3.39453 -1.11625,0 -1.41443,0.84324 -0.6621,1.87305 0.84849,1.16157 0.52644,1.43051 -0.84961,0.71094 -2.6182,-1.36923 -0.24744,-6.02741 6.17578,-12.12891 l 4.07422,-3.86914 -4.16797,1.83203 c -4.42697,1.94746 -10.20703,10.30075 -10.20703,14.75 0,1.46849 0.97023,3.4924 2.15625,4.4961 3.68039,3.11417 0.24724,13.30045 -5.18946,15.39648 -3.95315,1.524 -5.61443,1.27031 -9.96094,-1.51953 -2.86856,-1.84125 -5.08415,-4.57155 -4.92578,-6.06836 0.15853,-1.49682 -0.70509,-2.44971 -1.91796,-2.11719 -2.45489,0.67312 -9.52932,-5.18261 -10.48243,-8.67578 -1.08794,-3.98846 -11.67423,-12.08777 -16.13672,-12.3457 -4.14046,-0.23938 -4.0897,-0.0708 1.15821,3.79101 3.02053,2.22283 4.9738,4.47922 4.33984,5.01563 -1.35957,1.15045 -9.5439,-7.26664 -10.08203,-10.36914 -0.20892,-1.20455 0.60147,-1.66783 1.85547,-1.06055 1.22535,0.59325 1.58988,0.48183 0.80859,-0.24805 -0.78305,-0.72992 -0.70126,-2.12363 0.17969,-3.09765 0.88175,-0.97402 2.13345,-3.03809 2.78516,-4.58594 1.01739,-2.41571 0.66854,-2.5407 -2.46875,-0.88281 -3.00422,1.58732 -4.40607,1.36616 -7.87305,-1.24024 -7.32064,-5.50357 -19.04995,-18.81566 -17.92969,-20.34961 0.59125,-0.8096 0.35206,-1.4707 -0.5332,-1.4707 -3.32031,0 -7.56556,-11.06212 -9.7832,-25.49219 -1.26358,-8.22071 -0.99374,-10.56637 1.45507,-12.69531 2.59652,-2.25825 2.6132,-2.56747 0.12696,-2.29101 -5.63265,0.62633 -7.42513,-0.1127 -8.73047,-3.5918 -0.72723,-1.93897 -4.88539,-6.8636 -9.23828,-10.94531 -11.35185,-10.64438 -24.51992,-27.69336 -21.39063,-27.69336 0.54374,0 -0.51312,-1.48228 -2.34765,-3.29493 -4.71508,-4.65927 -4.98352,-17.38431 -0.39258,-18.61718 5.0438,-1.35451 6.12563,-5.32043 1.76953,-6.49024 -2.0452,-0.54921 -4.54612,-0.56565 -5.55664,-0.0371 -1.01067,0.52854 -2.83893,-0.62508 -4.06446,-2.5625 -2.00058,-3.16281 -1.22763,-4.30083 7.57032,-11.14453 5.38918,-4.19215 9.79883,-8.46503 9.79883,-9.49609 0,-1.031 -3.45136,1.04552 -7.66797,4.61328 -4.21645,3.56783 -8.62026,6.48633 -9.78516,6.48633 -2.31075,0 -1.5424,-9.97498 1.17578,-15.26758 1.13322,-2.20674 0.94777,-2.76529 -0.64648,-1.93164 -1.33142,0.69623 -2.24414,0.18455 -2.24414,-1.25977 0,-1.33793 -0.64676,-2.77344 -1.4375,-3.18945 -0.78388,-0.41598 -1.1536,3.41843 -0.80664,8.51953 0.48359,7.10444 -0.1072,9.79469 -2.52735,11.49414 -2.75579,1.93518 -3.75185,1.61114 -7.79297,-2.5332 -2.54815,-2.61318 -6.23439,-9.03968 -8.19336,-14.28125 -2.42466,-6.48765 -3.95285,-8.66743 -4.7871,-6.82813 -0.67378,1.48605 -0.48172,3.94899 0.42578,5.47461 2.23972,3.76448 5.95312,13.9148 5.95312,16.26954 10e-6,1.1372 -2.98954,1.9121 -7.3789,1.9121 -7.69257,0 -19.44446,-2.78863 -19.4668,-4.61914 -0.007,-0.58169 -3.01273,-2.7874 -6.67969,-4.90039 -3.66712,-2.113 -6.2783,-4.37396 -5.80273,-5.02539 0.47592,-0.65143 -1.26201,-2.14712 -3.86133,-3.32422 -2.59933,-1.1771 -4.72656,-3.1116 -4.72656,-4.29882 0,-1.1872 -1.29371,-2.15821 -2.875,-2.15821 -1.58145,0 -2.875,-0.73112 -2.875,-1.62304 0,-0.89197 1.07865,-1.63239 2.39648,-1.64649 1.59041,-0.0165 1.42812,-0.54181 -0.48047,-1.5625 -2.07671,-1.11087 -3.23421,-0.76543 -4.17578,1.24219 -1.21672,2.59264 -1.3143,2.58928 -1.4375,-0.0586 -0.0742,-1.56093 -1.52092,-2.8379 -3.21484,-2.8379 -1.95135,0 -2.6753,-0.89322 -1.97657,-2.43359 0.60661,-1.33792 0.26718,-2.43164 -0.7539,-2.43164 -1.02108,0 -1.85547,-2.18936 -1.85547,-4.86523 0,-2.67584 0.91956,-4.86524 2.04492,-4.86524 1.12524,0 1.59486,1.27695 1.04297,2.83789 -0.55174,1.56089 0.22096,4.6627 1.71875,6.89258 2.97939,4.43611 3.10941,4.16955 3.60547,-7.29883 0.11594,-2.67585 1.65579,-7.23594 3.41992,-10.13476 2.45521,-4.0352 2.61838,-5.27149 0.70117,-5.27149 -1.3775,0 -2.95445,1.46023 -3.50586,3.24414 -0.55142,1.78388 -1.99051,3.24219 -3.19922,3.24219 -1.4602,0 -2.0679,-3.41848 -1.80859,-10.19141 0.11463,-2.9927 -0.0617,-6.10872 -0.42578,-8.66601 -0.0931,0.17882 -0.3218,0.3919 -0.71875,0.63867 -1.05404,0.6553 -1.91126,5.06876 -1.9336,9.80859 -0.0144,7.26264 -0.7696,9.10705 -4.79296,11.72266 -3.86307,2.51129 -4.13559,3.10937 -1.42188,3.13867 3.84068,0.0413 4.78963,6.50923 0.96094,6.54883 -1.62225,0.0168 -1.48751,0.51147 0.42187,1.5332 6.34117,3.39318 -0.74503,3.75317 -8.1914,0.41602 -9.52485,-4.26865 -18.26295,-4.50774 -37.75,-1.02734 -15.690194,2.80241 -30.096316,2.28935 -32.966799,-1.17579 -1.418431,-1.71235 -2.043615,-1.75294 -2.798829,-0.17773 -1.357494,2.83041 -6.402343,2.54262 -6.402343,-0.36524 0,-1.83159 -1.040971,-2.05687 -4.441407,-0.96289 -4.382032,1.40962 -13.037257,1.23495 -22.390624,-0.45117 -13.079353,-2.35777 -19.075914,-4.27472 -28.75,-9.19531 -7.8506139,-3.99316 -12.8316231,-5.37591 -19.5136724,-5.41211 l -8.9707036,-0.0488 3.664063,-4.35351 c 2.014956,-2.39436 6.4828519,-5.41384 9.9296875,-6.71094 3.44668186,-1.29707 8.4213087,-3.22579 11.0566406,-4.28711 4.7118619,-1.89749 4.6970589,-1.91421 -0.9570312,-0.97461 -6.89064588,1.14512 -22.0410159,8.3582 -22.0410159,10.49414 0,0.83379 -2.221362,2.74732 -4.935547,4.25195 -4.791056,2.65609 -5.377016,2.55281 -20.125,-3.53125 -15.063277,-6.21425 -18.294957,-8.68645 -11.833984,-9.04882 2.93798,-0.1648 2.961664,-0.2748 0.195313,-0.89649 -4.385211,-0.98555 -5.531824,-6.02162 -2.496094,-10.97265 1.511702,-2.4656 1.761184,-4.15821 0.611328,-4.15821 -2.336973,0 -8.364564,4.84346 -6.115234,4.91407 0.865749,0.0271 0.215325,0.72092 -1.445313,1.54296 -3.865965,1.91342 -10.976074,0.36907 -11.732422,-2.54882 -0.368252,-1.4218 -1.330853,-0.88015 -2.625,1.47851 -1.663994,3.03399 -1.487763,3.72854 0.957031,3.74414 14.238004,0.0929 15.202195,0.44708 15.820313,5.81836 0.421034,3.6596 2.031448,5.81875 5.390625,7.2207 26.479596,11.05107 29.449626,11.88477 42.277344,11.88477 10.70893515,0 14.8278738,0.85079 24.101562,4.97852 6.151589,2.73803 11.648934,5.61625 12.21875,6.39648 2.808414,3.84525 79.780952,10.99061 85.275392,7.91602 4.45913,-2.49543 21.86524,-4.51172 27.38672,-3.17188 9.64547,2.34062 22.44464,9.46122 37.19726,20.69336 7.69895,5.86156 16.36863,12.15545 19.26758,13.98633 2.89862,1.83091 5.27149,4.24906 5.27149,5.375 0,1.29775 4.19419,2.44887 11.46093,3.14453 6.71612,0.64293 10.98308,1.75616 10.30274,2.6875 -0.68722,0.94131 0.35313,1.18398 2.55078,0.59375 2.90631,-0.78044 4.43312,0.28141 7.03516,4.89844 3.26911,5.8009 3.25855,5.88255 -0.59766,5.02929 -2.15573,-0.47699 -3.91992,-0.20491 -3.91992,0.60352 0,0.80844 0.89118,1.46875 1.97851,1.46875 1.08713,0 2.50909,1.277 3.16016,2.83789 0.65091,1.56092 2.69604,4.29811 4.54687,6.08203 3.39997,3.27689 4.77196,5.14109 17.47266,23.78711 3.86677,5.67728 10.42412,13.59457 14.57227,17.59375 15.17668,14.63178 17.03329,24.43652 2.86328,15.11328 -3.84453,-2.52933 -7.84905,-5.09042 -8.89844,-5.6914 -1.20057,-0.68727 -0.8915,-2.12794 0.83008,-3.88282 2.48222,-2.53078 2.32698,-2.68099 -1.65625,-1.61133 -5.67229,1.52333 -14.03171,-3.06315 -30.60156,-16.79101 -3.94883,-3.27175 -5.32483,-3.60235 -8.35352,-2.00195 -3.74071,1.97678 -12.23907,1.05061 -16.51758,-1.80078 -1.31799,-0.87817 -2.39648,-1.08963 -2.39648,-0.47071 0,3.49946 -5.35602,-4.27649 -7.20508,-10.45898 -2.15222,-7.1983 -2.17701,-7.21536 -1.70703,-1.2168 0.32202,4.11376 -0.32709,6.08203 -2.01172,6.08203 -1.36933,0 -2.49219,0.78719 -2.49219,1.75 0,1.10682 -2.29023,1.36924 -6.22851,0.71289 -4.63316,-0.77215 -5.49379,-0.60472 -3.35547,0.65625 1.58144,0.93242 4.96332,1.70681 7.51562,1.72071 2.55244,0.0137 6.10043,1.14115 7.88281,2.50585 3.13987,2.40459 5.5647,2.88774 25.66602,5.10547 5.1921,0.57285 11.13921,2.201 13.21289,3.61914 12.85362,8.78996 16.64736,12.16731 16.19336,14.41993 -0.28281,1.40623 1.22666,2.94815 3.38672,3.45703 5.50724,1.29742 20.05859,11.57271 20.05859,14.16406 0,1.18864 1.94049,2.1736 4.3125,2.1875 3.45564,0.0199 3.74345,0.32831 1.44727,1.55664 -2.51759,1.34666 -2.4872,1.78781 0.24219,3.625 1.70832,1.15016 4.1128,3.55011 5.34375,5.33399 1.93418,2.80255 2.07609,2.52736 1.04492,-2.0254 -0.9694,-4.27782 -0.65004,-5.09157 1.70117,-4.32812 3.27872,1.06448 3.50846,6.75708 0.42187,10.4082 -1.75854,2.07956 -1.59087,2.12628 1.13868,0.32032 2.74538,-1.81647 3.40237,-1.58979 4.6914,1.62109 0.82464,2.05387 1.30741,4.33504 1.07227,5.07031 -0.23499,0.73525 0.45684,0.87544 1.53711,0.31055 2.24691,-1.17503 2.54024,0.87103 0.70508,4.91797 -1.03116,2.2736 -1.92131,1.78391 -4.91016,-2.70508 -2.00744,-3.01502 -3.07031,-4.02217 -2.36133,-2.23828 0.70866,1.7839 1.40752,4.33786 1.55469,5.67578 0.14638,1.33789 0.77151,2.79814 1.38867,3.24414 0.61733,0.44597 1.91087,2.00205 2.875,3.45703 0.96397,1.45494 8.38211,8.56983 16.48242,15.8125 25.28496,22.60817 32.39117,31.00391 26.24805,31.00391 -1.84459,0 7.53486,10.94042 15.04492,17.54882 3.18433,2.80203 3.07745,3.58936 -0.8125,5.9961 -1.87115,1.15785 -6.22716,1.67081 -10.2793,1.21094 -5.80527,-0.65887 -7.5827,-0.1347 -10.17578,2.99804 -2.99237,3.61435 -2.93653,3.86741 1.17578,5.31055 4.98477,1.74919 10.90684,2.29759 28.27735,2.61914 6.86631,0.12708 15.47078,1.40866 19.16797,2.85547 3.68919,1.44381 14.46766,9.23457 23.95508,17.31445 9.48755,8.07987 21.13113,17.64034 25.875,21.24414 11.68713,8.87875 17.99788,14.80075 22.58789,22.16602 11.51362,3.15841 22.90607,6.66034 34.1582,10.5 -2.89797,-7.8598 -2.53355,-8.80236 0.17187,-10.55274 3.18898,-2.06328 3.11113,-2.15057 -1.02148,-1.10546 -4.48025,1.13296 -4.48306,1.12204 -3.14844,-9.96875 1.7403,-14.46289 4.20298,-16.79212 13.34375,-12.62696 3.74566,1.70681 6.43987,3.91684 5.98828,4.91211 -0.47351,1.04456 1.33607,1.83464 4.28125,1.86914 15.36674,0.17924 17.5586,0.78979 17.5586,4.88477 0,2.52759 3.13636,6.65845 8.62695,11.37109 4.74387,4.07129 8.70667,8.19411 8.81055,9.16211 0.1027,0.9679 0.46404,5.34757 0.80078,9.73047 0.33818,4.3983 1.75817,8.55444 3.16797,9.27734 1.40501,0.7203 3.50633,1.87797 4.67187,2.57227 1.04435,0.6223 1.99784,3.39304 2.63477,6.49414 6.09095,2.9675 12.11933,6.03964 18.07812,9.21484 -0.72536,-0.6687 -1.31221,-1.6213 -1.55664,-2.6875 -0.45989,-2.0069 -2.22362,-9.40826 -3.91797,-16.44726 -1.69488,-7.0391 -2.84259,-12.96894 -2.55273,-13.17774 0.29002,-0.2087 2.57414,-0.9139 5.07812,-1.5664 3.12263,-0.8139 4.14218,-0.62273 3.24219,0.60937 -0.72094,0.9875 -0.69721,2.63707 0.0527,3.66407 0.94638,1.29539 2.14806,0.95924 3.92578,-1.09766 1.40915,-1.6309 2.96346,-2.62719 3.45312,-2.21289 1.5485,1.3103 -2.52078,21.64435 -4.43945,22.18555 -1.14554,0.32349 -1.17437,2.45339 -0.0781,5.6875 0.96381,2.8441 1.75196,5.35899 1.75196,5.58789 h -0.002 c 0,0.229 -1.27885,0.41601 -2.83984,0.41601 -0.1598,0 -0.32011,-0.0276 -0.48047,-0.0606 15.78852,8.279 31.0982,17.27036 45.86719,26.93946 9.16759,-5.5525 20.16935,-11.49375 30.94726,-16.56055 45.93751,-21.5961 52.22937,-25.64151 63.9629,-41.13281 3.71541,-4.9057 8.81142,-10.74278 11.32421,-12.97266 4.31532,-3.82996 11.69455,-11.84497 50.54883,-54.89062 8.96015,-9.92681 17.36968,-18.05696 18.6875,-18.06836 1.31735,-0.0108 2.17933,-0.82944 1.91602,-1.81836 -0.94684,-3.55294 20.90371,-14.10076 41.68554,-20.12305 11.59548,-3.36026 22.29556,-6.91843 23.77735,-7.90625 1.65039,-1.10056 9.63051,-1.62835 20.60547,-1.36328 9.8507,0.2379 17.8816,-0.12667 17.84961,-0.81055 -0.14958,-3.04882 -5.74474,-7.24963 -8.47461,-6.36328 -1.63201,0.52982 -2.96485,0.30581 -2.96485,-0.49804 0,-0.80386 -1.63229,-1.89991 -3.62695,-2.43555 -6.82137,-1.83192 -6.14391,-7.29077 2.78906,-22.50195 10.54275,-17.95282 11.17097,-18.6007 18.70703,-19.21876 5.01597,-0.41141 6.12019,-1.21946 6.27539,-4.5996 0.30407,-6.64554 9.57877,-17.47498 17.30664,-20.20704 3.81238,-1.34784 11.56932,-2.45117 17.23829,-2.45117 5.66932,0 10.30859,-0.72915 10.30859,-1.62109 0,-0.89196 1.43848,-1.62305 3.19531,-1.62305 1.75692,0 2.62559,-0.47953 1.93164,-1.0664 -2.55967,-2.16605 3.20773,-5.41993 9.60743,-5.41993 7.98909,0 10.99893,-1.27743 20.70117,-8.79687 4.11917,-3.1926 12.27597,-7.27089 18.12897,-9.0625 5.8528,-1.79161 13.2284,-4.32831 16.3906,-5.63672 l 5.7519,-2.37891 -5.5898,1.01758 c -3.0735,0.55985 -8.2469,1.09059 -11.4981,1.17969 -4.0403,0.11082 -5.726,0.89176 -5.3242,2.46484 0.4745,1.86063 0.039,1.91722 -2.2676,0.29688 -2.3564,-1.65458 -3.7682,-1.13545 -8.0918,2.9707 -2.88104,2.73602 -5.64627,4.62876 -6.1445,4.20703 -0.49887,-0.42178 -3.44024,1.03719 -6.53711,3.24219 -6.09228,4.3375 -14.92188,5.40271 -14.92188,1.80078 0,-1.52837 -1.60484,-1.94752 -5.2168,-1.36328 -4.61152,0.74591 -4.77687,0.97531 -1.43554,1.96875 3.57328,1.06262 3.53638,1.18872 -0.67774,2.32227 -2.45131,0.65939 -4.91895,0.8088 -5.48242,0.33203 -0.56374,-0.47672 -4.3612,0.9165 -8.44141,3.0957 -4.07975,2.17921 -9.50971,3.96094 -12.0664,3.96094 -6.59123,0 -20.33037,6.55717 -23.79102,11.35351 -10.97252,15.20743 -13.26367,16.51779 -28.7539,16.45899 -5.04381,-0.0191 -6.70512,0.82195 -8.19922,4.14648 -1.03052,2.29332 -2.4004,3.72311 -3.04492,3.17774 -1.94474,-1.6456 5.31806,-21.11455 8.68554,-23.28321 1.72415,-1.11027 2.15307,-2.04181 0.95508,-2.07031 -1.19785,-0.0284 -2.54979,-2.20328 -3.00586,-4.83203 -0.45592,-2.62876 -0.26181,-4.48173 0.43164,-4.11914 0.69347,0.36262 3.12191,-2.14395 5.39649,-5.56836 7.9482,-11.96577 35.67922,-29.27006 47.02929,-29.34766 4.84202,-0.0329 27.74541,-5.12586 38.56055,-8.57422 5.04796,-1.60952 7.99478,-3.68275 8.66797,-6.0957 1.55143,-5.56049 13.20578,-12.59565 30.94146,-18.68164 14.2976,-4.90627 15.6994,-6.58655 4.6562,-5.58203 -2.017,0.18349 -10.4978,3.91789 -18.8418,8.29687 -8.34421,4.37896 -16.3443,7.96094 -17.7793,7.96094 -3.63489,0 -4.82741,-2.15145 -2.74023,-4.94336 1.41914,-1.89784 1.76854,-1.73621 1.79101,0.82813 0.0426,4.64067 10.03252,-5.56496 16.51368,-16.8711 5.70734,-9.95576 5.50564,-9.75857 20.05084,-19.74609 5.8627,-4.02582 10.314,-8.19552 9.8925,-9.26563 -0.4932,-1.25142 -2.928,-0.40061 -6.8261,2.38477 l -6.0606,4.33203 -0.5449,-3.90234 c -0.2996,-2.14569 1.6098,-9.24491 4.2441,-15.77539 2.7166,-6.73226 3.8637,-11.61187 2.6504,-11.26953 -2.2295,0.62871 -6.8274,12.52648 -8.6328,22.33398 -1.0621,5.77005 -3.671,9.73047 -6.4082,9.73047 -5.9251,0 -1.3176,-36.81863 6.1582,-49.21875 2.1047,-3.49053 10.4357,-11.9414 18.5137,-18.7793 8.0774,-6.83793 18.5669,-16.28552 23.3105,-20.99609 13.2143,-13.12238 13.2905,-13.17426 19.7813,-13.19336 3.3508,-0.01 9.9749,-1.07916 14.7187,-2.37695 20.5625,-5.62528 38.6193,-11.72764 41.1407,-13.9043 10.9014,-9.41114 12.3782,-11.26953 8.9589,-11.26953 -1.9811,0 -4.7066,2.3326 -6.5546,5.61133 -2.8119,4.98895 -4.7129,5.99112 -17.125,9.01757 -7.6794,1.87251 -15.5758,4.15064 -17.5489,5.06446 -6.8267,3.16193 -20.3711,6.00504 -20.3711,4.27539 0,-0.97813 -1.1786,-0.83462 -2.8652,0.34961 -1.5754,1.10631 -4.5288,1.64294 -6.5605,1.19336 -3.8629,-0.85462 -10.129,3.80011 -16.4219,12.19336 -1.9235,2.56608 -5.0816,4.46877 -7.4356,4.48437 -3.1052,0.0188 -3.4478,0.36866 -1.4238,1.45313 2.1937,1.17542 1.9148,2.32392 -1.5684,6.46289 -2.3296,2.76808 -5.2664,5.0332 -6.5253,5.0332 -1.2595,0 -3.9096,1.82287 -5.8887,4.05273 -1.9793,2.22988 -4.5547,4.06479 -5.7246,4.07618 -5.3905,0.0509 -17.9039,22.46125 -19.6797,35.24609 -0.6758,4.86466 -2.2324,9.6379 -3.45902,10.60742 -1.37266,1.08521 -1.81375,4.29535 -1.14844,8.35156 2.02576,12.34803 0.83865,14.7481 -8.12109,16.42969 -7.77507,1.45923 -8.07349,1.74904 -8.64258,8.4043 -0.32401,3.79081 -1.32546,6.89062 -2.22852,6.89062 -0.90116,0 -1.26359,2.78894 -0.80078,6.19532 0.4803,3.53871 -0.43848,8.78091 -2.14258,12.23242 -1.64067,3.32251 -2.39331,6.85322 -1.66992,7.84375 0.73879,1.01159 0.45326,1.34859 -0.6543,0.76953 -1.08417,-0.56704 -3.54046,0.73485 -5.45703,2.89453 -1.91674,2.15968 -4.0337,3.64017 -4.70508,3.28906 -0.67157,-0.35109 -5.38547,0.42229 -10.47656,1.71875 -12.07283,3.07434 -12.48242,3.02751 -12.48242,-1.44922 0,-2.23448 3.52625,-7.09139 8.53516,-11.75781 5.90961,-5.50776 7.67888,-8.11138 5.75,-8.47461 -1.53114,-0.28838 -2.78516,-2.01996 -2.78516,-3.84765 0,-2.63573 -0.54488,-2.94048 -2.63477,-1.47266 -1.4494,1.01786 -2.63671,3.65553 -2.63671,5.86133 0,2.2058 -2.11229,6.38868 -4.69336,9.29492 -2.58124,2.90622 -5.25322,6.57215 -5.93946,8.14648 -0.68588,1.57429 -3.61165,3.62293 -6.50195,4.55274 -4.31805,1.38899 -4.75233,1.9894 -2.44336,3.37109 2.27817,1.36322 2.14799,1.50127 -0.68359,0.72461 -4.41717,-1.21145 -11.42062,1.84571 -9.68164,4.22656 0.79714,1.09174 0.42966,1.33116 -0.94336,0.61329 -1.26204,-0.65991 -4.82686,0.65709 -8.10938,2.99414 -3.22164,2.29378 -5.21423,4.16992 -4.42578,4.16992 0.78853,0 3.01379,-1.20744 4.94141,-2.6836 2.22326,-1.70228 3.5039,-1.97618 3.5039,-0.74804 0,1.65289 -7.79425,8.65173 -19.32812,17.35742 -3.61161,2.7262 -5.58789,2.92959 -5.58789,0.57422 0,-0.9446 0.64499,-1.42894 1.43554,-1.07617 0.79073,0.35278 4.34026,-2.1581 7.88868,-5.58008 8.31591,-8.02028 5.39327,-8.00988 -4.53516,0.0156 -11.54574,9.33295 -14.8044,13.27491 -13.76172,16.64844 0.52422,1.69558 -0.0412,3.06151 -1.26953,3.0625 -3.1864,0.003 -10.8418,15.48433 -10.8418,21.92578 0,3.00125 -1.83123,8.08398 -4.07031,11.29492 -3.88196,5.56666 -4.23953,5.70927 -7.66797,3.08399 -4.53199,-3.46964 -4.54068,-2.09426 -0.0352,5.51758 6.46778,10.92456 6.48243,13.77252 0.0937,21.12304 -4.37609,5.03499 -7.86114,7.14999 -13.85547,8.41211 -4.40361,0.92722 -11.69262,3.12896 -16.20118,4.89453 -4.50823,1.76559 -10.00198,3.21094 -12.20507,3.21094 -3.27952,0 -3.75708,-0.66101 -2.64258,-3.64844 0.74834,-2.00688 1.80922,-5.65649 2.35742,-8.10937 0.54805,-2.45285 1.81183,-4.45899 2.80859,-4.45899 0.99694,0 1.29431,-0.70842 0.66211,-1.57421 -0.63268,-0.86574 0.10473,-3.62878 1.63868,-6.13868 1.53393,-2.50987 3.37098,-7.09256 4.08203,-10.18359 0.88718,-3.85702 3.19318,-6.64368 7.35156,-8.88477 7.58635,-4.0883 8.7236,-10.24006 3.32226,-17.98632 -2.1834,-3.13078 -3.9707,-7.77475 -3.9707,-10.32032 0,-6.52289 9.15225,-12.65076 20.85938,-13.96484 7.98883,-0.89666 10.26843,-2.08275 17.33984,-9.0293 8.52989,-8.38011 8.54808,-11.34334 0.0723,-13.21875 -4.12943,-0.91368 -6.94164,1.25932 -3.77344,2.91602 2.61692,1.3686 0.26182,4.48709 -2.66992,3.53516 -1.25526,-0.40756 -3.91971,0.27105 -5.92188,1.50976 -2.00216,1.23871 -6.3235,2.25391 -9.60156,2.25391 -7.13125,0 -15.83533,3.18 -17.27344,6.31054 -0.88527,1.92755 -0.54113,1.92755 2.36133,0 3.10307,-2.06073 3.1654,-2.00631 0.71484,0.63477 -1.47554,1.59062 -3.63351,2.62069 -4.79296,2.28906 -2.06999,-0.59205 -10.99246,10.17369 -9.79493,11.81836 0.57141,0.78483 -14.02405,0.98793 -23.27148,0.32422 -2.69964,-0.19376 -4.8152,-1.97623 -6.12695,-5.16016 -1.10234,-2.67587 -3.24287,-4.86523 -4.75586,-4.86523 -3.56553,0 -5.69902,-6.79138 -2.64844,-8.43164 1.27817,-0.68721 1.46028,-1.25934 0.40625,-1.27344 -1.05451,-0.0136 -1.83168,-2.39797 -1.73242,-5.29687 0.1259,-3.6238 1.21617,-5.44005 3.49414,-5.81641 2.73754,-0.45233 3.14564,0.35888 2.34179,4.67578 -0.55667,2.98803 -0.25541,4.61085 0.70313,3.79102 0.92158,-0.78836 2.25655,-7.27261 2.9668,-14.40821 0.71025,-7.13561 2.50508,-14.61421 3.99023,-16.62109 1.5389,-2.07986 1.8599,-3.65039 0.74219,-3.65039 -3.12961,0 -2.30959,-2.84176 2.80078,-9.69141 6.31346,-8.46211 3.70428,-15.07936 -3.53125,-8.95703 -4.13215,3.49593 -5.30966,3.00911 -3.93555,-1.62304 0.96941,-3.26784 0.48888,-4.05274 -2.4707,-4.05274 -2.89768,0 -3.58447,1.03355 -3.26758,4.9082 0.22076,2.70021 -0.6294,8.35595 -1.88867,12.56836 -1.25928,4.21235 -2.13666,9.483 -1.94727,11.71289 0.18894,2.22988 -0.45005,5.33169 -1.42187,6.89258 -1.14489,1.83812 -1.06969,2.83789 0.21484,2.83789 2.56591,0 2.50512,1.95675 -0.23242,7.59766 -1.21863,2.51094 -2.33984,5.29554 -2.49023,6.1875 -1.43715,8.45724 -4.01256,14.14699 -7.01758,15.50781 -2.51327,1.1381 -3.60938,1.09479 -3.60938,-0.14062 0,-0.97597 -0.86198,-1.32274 -1.91601,-0.77149 -3.48779,1.82395 -1.991,-3.82524 3.02929,-11.43359 2.71979,-4.12243 4.47137,-7.89696 3.89258,-8.38672 -0.57891,-0.48978 -2.58729,1.39259 -4.46484,4.18359 -1.87755,2.79104 -4.0628,5.07894 -4.85352,5.08594 -0.79057,0.006 -1.4375,1.10349 -1.4375,2.44141 0,1.33794 -0.86181,2.43359 -1.91601,2.43359 -1.05433,0 -1.91602,1.8248 -1.91602,4.05469 0,2.35889 -1.10327,4.05273 -2.63672,4.05273 -1.44948,0 -5.11393,0.40623 -8.14453,0.90235 -5.54467,0.90768 -10.48581,-1.44469 -21.11523,-10.05664 -2.36178,-1.91358 -8.0517,-5.76278 -12.64649,-8.55469 -10.47586,-6.36571 -16.1563,-13.8943 -12.95117,-17.16211 1.23591,-1.25746 1.74496,-2.96463 1.13867,-3.79492 -0.60644,-0.83034 -0.0326,-1.4774 1.27344,-1.4375 1.30612,0.0398 4.5307,-0.0548 7.16602,-0.20899 3.83828,-0.22456 4.21893,-0.59238 1.91601,-1.85156 -1.58096,-0.86463 -5.17706,-1.58356 -7.99219,-1.59766 -4.18477,-0.0203 -5.38936,-0.98591 -6.5957,-5.29492 -0.81183,-2.89882 -1.28982,-5.87214 -1.0625,-6.60742 0.2265,-0.73523 -0.41164,-0.90611 -1.41992,-0.37891 -2.03832,1.06583 -7.8457,-5.1331 -7.8457,-8.375 0,-1.13947 1.72543,-2.07226 3.83398,-2.07226 4.24206,0 5.19342,2.50942 1.4375,3.79101 -1.4749,0.50365 -1.15155,0.86672 0.84375,0.94532 1.78236,0.0704 3.8334,-0.67883 4.55469,-1.66602 0.72067,-0.98716 1.84727,-1.15538 2.50586,-0.37305 2.78812,3.31049 12.77045,5.39596 24.76953,5.17383 l 12.84766,-0.23828 -13.59376,-1.06445 c -9.53539,-0.74641 -15.13024,-2.08887 -18.75,-4.49805 -3.05948,-2.03624 -4.34132,-3.8624 -3.14843,-4.48633 2.76617,-1.4465 0.24739,-4.48702 -2.87696,-3.47265 -3.90802,1.26896 -5.2133,-3.97029 -1.78711,-7.17383 1.68416,-1.57468 5.372,-3.37743 8.19336,-4.00586 4.65972,-1.03789 4.78006,-1.2509 1.33594,-2.32422 -2.33394,-0.72726 -4.79799,-0.32883 -6.41015,1.03516 -1.44037,1.21881 -5.20275,3.34654 -8.36133,4.72851 -5.1969,2.27421 -6.05783,2.27112 -9.07227,-0.0371 -1.83165,-1.40276 -4.59863,-2.55078 -6.14648,-2.55078 -1.54802,0 -6.06364,-2.81861 -10.03711,-6.26172 -3.97345,-3.44308 -11.43814,-7.92874 -16.58594,-9.96875 -17.36361,-6.88143 -14.03234,-12.44231 8.91016,-14.875 23.63825,-2.5064 37.20122,-2.88679 49.60742,-1.39258 9.517,1.14633 11.87637,0.94299 13.84766,-1.1875 1.30949,-1.41222 1.83629,-2.98501 1.17578,-3.49609 -0.66083,-0.51109 -1.58829,-0.0173 -2.0586,1.09766 -1.07562,2.54844 -9.42763,2.66268 -11.25976,0.15429 -0.92014,-1.25952 -0.48695,-1.43975 1.32422,-0.55078 1.48082,0.72545 2.05293,0.72419 1.27148,-0.006 -0.7816,-0.7299 -0.46127,-2.30691 0.71289,-3.5039 1.63056,-1.662 1.43065,-2.17578 -0.8457,-2.17578 -1.63919,0 -3.55075,1.52134 -4.24805,3.38086 -1.0238,2.72911 -2.24845,3.16759 -6.35742,2.27929 -2.79912,-0.60527 -6.38535,-1.33361 -7.9668,-1.61914 -1.58112,-0.2855 -4.52544,-1.07174 -6.54297,-1.74609 -2.78503,-0.9307 -3.28496,-0.70217 -2.08007,0.94726 1.10073,1.50727 0.7551,1.91322 -1.125,1.32227 -1.49058,-0.46855 -8.74629,0.008 -16.125,1.05859 -21.39099,3.04685 -24.43795,1.03534 -14.48438,-9.5625 3.30269,-3.51654 5.21457,-7.13745 4.61133,-8.73633 -0.86368,-2.28919 -0.7086,-2.34534 0.96484,-0.34179 1.71661,2.0546 2.6162,1.91748 6.41016,-0.98438 2.42736,-1.85665 8.91637,-5.40833 14.41992,-7.89258 5.50324,-2.48426 9.46749,-5.25596 8.80859,-6.1582 -0.67907,-0.92918 -0.24555,-1.14267 0.99805,-0.49219 1.29126,0.6752 6.53118,-2.60854 12.71875,-7.9707 6.35924,-5.51165 11.41336,-8.65558 12.77148,-7.94531 1.39045,0.72697 1.73486,0.47339 0.9043,-0.66406 -0.73872,-1.01131 -0.36938,-3.37719 0.82031,-5.25782 1.67151,-2.64252 3.32367,-3.19729 7.27539,-2.4414 4.72659,0.90412 4.84578,0.80305 1.60547,-1.34571 -2.79914,-1.8561 -3.08689,-2.98488 -1.43554,-5.5957 1.13722,-1.79836 2.06836,-4.74732 2.06836,-6.55469 0,-3.25721 1.21559,-4.54761 8.625,-9.15039 3.01271,-1.87172 3.11495,-2.16946 0.47851,-1.39258 -2.03512,0.59963 -3.35351,0.18608 -3.35351,-1.05078 0,-1.12118 -2.49593,0.87617 -5.54493,4.4375 -7.05893,8.24517 -14.99882,13.54645 -18.55859,12.39063 -1.87356,-0.6085 -2.41961,-0.12181 -1.68359,1.50195 0.61188,1.34846 -0.21836,2.82938 -1.89258,3.37305 -1.64176,0.53309 -2.98828,2.12733 -2.98828,3.54297 0,1.80518 1.38478,1.21461 4.63086,-1.97657 2.54574,-2.5026 5.27072,-4.00727 6.05664,-3.34375 0.78592,0.66351 -0.004,2.54699 -1.75391,4.1836 -4.2158,3.94197 -4.0249,5.71768 0.50781,4.71484 2.58971,-0.57279 3.38532,-0.14609 2.66993,1.43164 -1.19527,2.63532 -3.71959,2.92825 -5.40039,0.62696 -2.03048,-2.77958 -3.62625,-1.79854 -10.54297,6.48632 -5.8771,7.03983 -15.25734,12.97461 -20.50782,12.97461 -0.94717,0 -1.58046,-2.37069 -1.40625,-5.26953 0.20525,-3.43529 0.0248,-3.85932 -0.51562,-1.21679 -0.45672,2.22987 -6.91478,9.26978 -14.35156,15.64453 -7.43678,6.3748 -13.02206,12.2742 -12.41211,13.10937 0.60996,0.83515 0.0682,1.5533 -1.20313,1.5957 -1.27128,0.0424 -3.8193,0.60627 -5.66406,1.25391 -2.01224,0.70652 -3.35352,0.45995 -3.35352,-0.61719 0,-0.9874 0.66378,-1.79492 1.47657,-1.79492 2.49567,0 6.59715,-19.43844 7.52929,-35.67969 0.53621,-9.33617 1.95668,-16.82142 3.60547,-18.99804 1.49618,-1.9755 2.71875,-5.29604 2.71875,-7.37891 0,-2.08285 0.86079,-4.51478 1.91211,-5.4043 1.05114,-0.88953 5.4205,-7.75374 9.70703,-15.2539 6.08328,-10.64439 8.22351,-13.11856 9.75391,-11.27539 1.5221,1.83256 1.74889,1.54478 1.01562,-1.28711 -0.62261,-2.40262 -0.046,-3.64844 1.68946,-3.64844 1.44964,0 2.23055,-0.91243 1.73242,-2.02734 -0.52247,-1.17026 2.13367,-3.19259 6.28711,-4.78516 l 7.19531,-2.75977 -7.66601,0.94336 c -8.35884,1.0282 -13.01532,3.30933 -11.36524,5.56836 0.5778,0.79088 0.13579,1.4375 -0.98047,1.4375 -1.11642,0 -1.88024,0.54781 -1.69531,1.2168 0.73312,2.66726 -4.97017,10.14348 -7.83008,10.26367 -2.08168,0.0875 -2.26537,0.39292 -0.58203,0.96485 1.77406,0.60287 0.24978,4.31259 -5.44336,13.25195 -4.34841,6.82773 -8.21697,12.6845 -8.59961,13.01367 -0.38232,0.32916 -2.12419,-0.60908 -3.86719,-2.08398 -2.0708,-1.75219 -3.92685,-2.15484 -5.35937,-1.16016 -1.206,0.83729 -4.34906,1.82668 -6.98438,2.19727 -4.68931,0.65932 -4.66971,0.69978 0.95704,1.9121 3.16255,0.68137 6.86923,1.53308 8.23632,1.89258 3.32446,0.87431 2.5004,15.33096 -0.9375,16.44727 -1.37796,0.4476 -2.50586,1.82974 -2.50586,3.07226 0,1.24249 -1.51069,2.34384 -3.35546,2.44727 -3.04787,0.17089 -3.03558,0.25864 0.13867,0.95312 2.05481,0.44958 3.0678,1.70978 2.45703,3.05665 -0.62835,1.3851 0.17461,2.28906 2.0293,2.28906 3.12577,0 3.06745,3.01353 -0.32422,17.02929 -2.11462,8.73944 -7.17578,9.93112 -7.17578,1.68946 0,-2.26701 -0.61134,-4.12305 -1.35743,-4.12305 -2.44544,0 -0.83529,-6.71045 1.97071,-8.21289 1.91084,-1.02325 2.01414,-1.47499 0.34375,-1.49219 -1.31782,-0.0137 -2.39649,-0.85646 -2.39649,-1.87304 0,-1.0166 -1.50875,-2.82712 -3.35351,-4.02344 -2.93221,-1.90161 -2.99358,-2.3797 -0.48047,-3.80274 1.58129,-0.89524 1.97821,-1.63824 0.8789,-1.65234 -1.09962,-0.0136 -3.66704,-4.17222 -5.70312,-9.24023 -4.788,-11.9195 -15.45478,-29.84706 -16.98633,-28.55078 -1.72701,1.46132 -1.45636,6.55645 0.52149,9.8125 4.8451,7.97592 11.14338,24.81251 9.58593,25.62695 -0.97518,0.5104 -1.33368,1.53215 -0.79492,2.26953 0.53846,0.73741 -0.65929,3.05348 -2.66211,5.14648 -2.54414,2.65803 -3.1254,4.62221 -1.92773,6.51563 1.99832,3.15975 0.97203,26.79765 -1.57227,36.23633 l -1.74609,6.48632 -1.91797,-5.67578 c -1.05498,-3.12181 -1.42166,-9.68999 -0.8125,-14.5957 0.60884,-4.90573 0.0178,-14.75701 -1.31445,-21.89258 -1.33205,-7.1356 -2.80935,-17.4574 -3.28125,-22.9375 -0.97071,-11.26621 -4.11845,-23.01792 -8.40625,-31.39062 -1.59823,-3.12183 -2.70053,-6.34015 -2.44922,-7.15039 0.25148,-0.81018 -0.39917,-1.9206 -1.44727,-2.46875 -3.36671,-1.76046 -5.83891,-20.13192 -3.75195,-27.87305 1.05354,-3.90808 2.06455,-15.13385 2.24805,-24.94531 0.18284,-9.81143 1.19565,-18.374 2.25,-19.0293 1.15432,-0.71763 0.86947,-1.2012 -0.71485,-1.2168 -2.12088,-0.02 -2.16792,-0.49588 -0.24414,-2.45703 1.58961,-1.6211 1.68516,-2.43359 0.2832,-2.43359 -2.9663,0 0.79432,-8.0201 5.70313,-12.16211 2.1143,-1.78392 5.29939,-5.55841 7.07617,-8.38672 1.7766,-2.82832 6.78065,-9.39645 11.12109,-14.5957 4.34058,-5.19921 8.06705,-10.18227 8.28125,-11.07422 1.51649,-6.2968 17.15887,-13.51644 31.14844,-14.37695 5.59764,-0.34428 13.78828,-1.46261 18.20117,-2.48438 4.41257,-1.02174 8.72382,-1.71986 9.58204,-1.55078 4.97919,0.98155 17.19552,-2.87773 20.90039,-6.60352 2.33554,-2.34813 6.41707,-5.25345 9.07031,-6.45507 10.08201,-4.56535 0.46858,-8.75942 -11.35742,-4.95508 -3.87876,1.24779 -5.61154,1.16797 -6.6875,-0.30469 -1.02507,-1.40313 -3.57271,-0.24316 -8.66211,3.93945 -5.4866,4.50933 -7.81614,5.50277 -9.73047,4.15821 -1.87994,-1.32012 -2.51563,-1.17353 -2.51563,0.57617 0,3.24338 -17.89383,9.78032 -29.3164,10.70898 -7.69079,0.62528 -10.56686,1.79693 -15.46094,6.30469 -5.99321,5.52031 -6.03286,5.5291 -12.24219,2.90039 -3.42621,-1.45033 -6.23047,-2.85669 -6.23047,-3.125 0,-0.2683 2.06101,-3.68084 4.57813,-7.58398 2.51694,-3.90312 5.12164,-9.72953 5.78711,-12.94922 0.92927,-4.49347 4.20879,-8.22177 14.11133,-16.04102 7.0954,-5.60275 18.07572,-14.36143 24.40039,-19.46289 12.76452,-10.29531 17.371,-12.33369 21.43164,-9.48242 2.34755,1.64853 2.40163,1.29727 0.375,-2.4668 -1.29991,-2.41446 -3.40131,-4.05524 -4.66602,-3.64453 -1.26536,0.41073 -3.26658,-0.0716 -4.44922,-1.07226 -1.58898,-1.34465 -2.15039,-0.9237 -2.15039,1.61328 0,1.88796 -0.76782,3.6773 -1.70508,3.97461 -0.93676,0.29732 -10.90463,7.83827 -22.15234,16.75781 -23.57023,18.69089 -27.0479,20.06221 -23.11523,9.12109 0.80912,-2.25138 0.64709,-3.46641 -0.39063,-2.92383 -0.99872,0.52255 -1.41406,-1.1612 -0.94726,-3.85156 0.45608,-2.62876 1.47603,-4.7793 2.26562,-4.77929 0.78708,0 1.17857,-1.98828 0.86328,-4.41797 -0.75057,-5.78598 1.63082,-7.97546 10.15234,-9.32813 10.24614,-1.62641 37.45561,-9.13141 40.66602,-11.2168 2.06536,-1.34169 2.42272,-1.31205 1.4082,0.11914 -0.74642,1.05332 -0.48162,2.37334 0.58985,2.9336 1.0913,0.57076 1.94726,-0.53284 1.94726,-2.50977 0,-2.85348 -0.88189,-3.38512 -4.61523,-2.78125 -3.30671,0.53485 -4.33693,0.12935 -3.62891,-1.43164 0.5434,-1.19866 -0.019,-2.17969 -1.24804,-2.17968 -1.22824,0 -1.69827,-0.72916 -1.04688,-1.6211 0.65161,-0.89193 0.60979,-1.62305 -0.0898,-1.62305 z M 162.91797,564.89258 c 0.0733,-0.14052 0.0567,-0.25817 -0.0547,-0.34961 0.0178,0.11697 0.0377,0.23003 0.0547,0.34961 z m -0.0547,-0.34961 c -0.31547,-2.06685 -0.75177,-3.74076 -1.27148,-4.5625 -2.15575,-3.40869 -1.79361,-8.57538 0.86523,-12.32031 0.96716,-1.36183 0.37854,-1.29465 -1.80664,0.20507 -2.8732,1.97211 -3.24626,1.78798 -3.27344,-1.62109 -0.0221,-2.88594 -0.4558,-3.27687 -1.73828,-1.5625 -0.94061,1.25704 -1.26691,3.26512 -0.72461,4.46094 0.64834,1.42989 -0.56015,2.19693 -3.53125,2.24023 -4.3505,0.0635 -4.28624,0.23104 1.71289,4.57617 3.42589,2.48157 6.22852,5.3719 6.22852,6.42188 0,1.04998 1.07687,1.91949 2.39453,1.93359 0.59768,0.006 0.97358,0.0884 1.14453,0.22852 z m 494.9043,-280.80859 c 0.99181,0 1.80273,0.72914 1.80273,1.62109 0,0.89193 -1.34493,1.62305 -2.98828,1.62305 -1.64335,0 -2.45444,-0.73112 -1.80273,-1.62305 0.6514,-0.89195 1.99634,-1.6211 2.98828,-1.62109 z m 46.08203,56.80468 c 1.77661,-0.0106 1.60798,0.52348 -1.86914,1.70117 -2.5011,0.84719 -6.55204,3.17287 -9.00195,5.16797 -2.45024,1.99516 -5.14727,3.69058 -5.99414,3.76758 -1.56835,0.14268 -5.72562,1.37984 -13.60743,4.04688 -5.21577,1.76499 -6.14062,1.83189 -6.14062,0.45117 0,-2.07025 6.81623,-5.34599 11.22656,-5.39649 3.08132,-0.0351 4.18868,-0.77767 3.48242,-2.33398 -0.72338,-1.59626 1.76958,-3.05756 8.30078,-4.86524 5.81915,-1.61045 11.3193,-2.52536 13.60352,-2.53906 z m 14.90625,1.78516 c -1.04218,-0.0109 -2.15528,0.0854 -3.08789,0.29101 -1.86443,0.41117 -0.80321,0.77364 2.35937,0.80665 3.16226,0.0331 4.68863,-0.30187 3.39063,-0.7461 -0.64876,-0.22211 -1.61993,-0.34067 -2.66211,-0.35156 z m -118.64453,0.0762 c 3.98038,0.0484 5.24966,2.73303 4.13281,8.50195 -1.41571,7.31698 -6.00586,10.00092 -6.00586,3.51172 0,-2.30421 -0.92169,-4.18945 -2.04883,-4.18945 -3.14306,0 -1.22157,-7.2059 2.04883,-7.68359 0.68016,-0.0993 1.30441,-0.14755 1.87305,-0.14063 z m 0.21484,24.03516 c 0.13097,10e-4 0.2272,0.0419 0.28711,0.125 0.27452,0.38095 2.55606,2.66811 5.06836,5.08203 l 4.56641,4.38867 -12.23243,15.4707 c -6.72892,8.50914 -12.88129,15.47157 -13.67187,15.47657 -2.00888,0.009 -1.83296,-0.91805 1.42383,-7.51368 1.57361,-3.18663 2.36144,-7.47398 1.75195,-9.52734 -0.60885,-2.05332 -0.0867,-5.34762 1.16211,-7.32227 1.24903,-1.97461 1.40256,-3.13687 0.3418,-2.58203 -1.13977,0.5953 -1.5387,-0.25515 -0.97656,-2.07422 0.88556,-2.8657 10.31463,-11.54559 12.27929,-11.52343 z m -40.61328,11.35937 c 2.65307,0 11.24643,15.18734 12.61719,22.29883 1.79374,9.30724 -1.36223,8.75821 -4.6582,-0.81055 -1.45942,-4.23677 -4.74032,-10.04398 -7.29102,-12.90429 -4.21372,-4.72552 -4.51473,-8.58399 -0.66797,-8.58399 z m 11.47656,42.4043 c 2.17672,0.006 2.30034,1.83004 1.80274,6.24609 -0.402,3.56779 -0.0604,6.48828 0.75781,6.48828 1.79772,0 1.95448,14.50751 0.26953,24.91016 -0.67059,4.13827 -1.74715,7.4996 -2.39453,7.4707 -0.64756,-0.029 -2.64418,-2.69264 -4.43359,-5.91992 -2.89078,-5.21301 -2.94153,-6.37471 -0.47657,-10.4082 1.52625,-2.49707 2.77344,-6.79147 2.77344,-9.54297 0,-4.44358 -0.41424,-4.81536 -3.70703,-3.32422 -4.79121,2.16982 -6.43181,2.1292 -4.79102,-0.11719 0.91296,-1.24962 -0.0716,-1.38997 -3.24023,-0.46289 -2.50368,0.73267 -7.5719,1.35843 -11.26172,1.39063 -13.67748,0.11823 -6.33831,-5.88903 18.25781,-14.94336 3.09282,-1.13861 5.13731,-1.7906 6.44336,-1.78711 z m 587.86916,64.76953 c -0.8999,-0.0427 -2.8674,0.63987 -7.1582,2.17773 -6.1917,2.21928 -13.2486,7.74899 -13.1016,10.26954 0.038,0.65874 1.9762,-0.72847 4.3106,-3.08399 2.334,-2.35556 7.0466,-4.78624 10.4726,-5.40039 3.4257,-0.61417 6.2305,-1.78828 6.2305,-2.60937 0,-0.84869 -0.054,-1.32029 -0.7539,-1.35352 z m -908.35158,89.67383 c -1.80812,-0.28432 -8.9562,13.65217 -8.81055,17.39844 0.13711,3.51355 0.33046,3.42117 2.08594,-0.98829 1.06542,-2.67584 3.22981,-7.29633 4.80664,-10.26757 1.57664,-2.97129 2.51032,-5.70305 2.07617,-6.07032 -0.0468,-0.0396 -0.0999,-0.0631 -0.1582,-0.0723 z m 368.00586,4.24609 c 2.70219,0 5.19075,5.76861 3.49219,8.09375 -2.44128,3.3427 -5.75781,1.48279 -5.75781,-3.22851 0,-2.67582 1.01915,-4.86524 2.26562,-4.86524 z m -25.37695,7.03321 c 0.30605,-0.0256 0.67304,0.057 1.06836,0.26367 1.05436,0.55127 1.91601,1.32539 1.91601,1.71875 0,0.39334 -0.86165,0.71484 -1.91601,0.71484 -1.05419,0 -1.91602,-0.77419 -1.91602,-1.71875 0,-0.59038 0.33759,-0.93579 0.84766,-0.97851 z m 24.30273,6.34765 c 1.94382,0.0629 3.59961,1.81364 3.59961,4.50195 0,2.27345 0.89113,2.81399 3.35352,2.03321 2.65965,-0.84341 2.93676,-0.58072 1.33789,1.26758 -1.10891,1.28193 -2.27289,4.88599 -2.58594,8.00781 -0.31306,3.12183 -0.96453,6.22165 -1.44922,6.89062 -1.2476,1.72086 -5.96546,1.51208 -7.30664,-0.32422 -2.58508,-3.53932 -1.49281,-13.1622 1.84766,-16.28515 3.36547,-3.14836 3.36205,-3.25586 -0.0762,-3.25586 -2.61068,0 -2.98796,-0.47947 -1.42188,-1.80469 0.87463,-0.74006 1.81761,-1.05984 2.70117,-1.03125 z m -375.26562,5.04492 c -0.14137,0.004 -0.30314,0.0527 -0.48243,0.14649 -1.13546,0.59386 -2.0625,4.44295 -2.0625,8.55273 0,9.22718 0.99911,8.59422 2.7754,-1.75586 0.82178,-4.78715 0.75912,-6.97371 -0.23047,-6.94336 z m 362.25781,17.98633 c 1.77391,0.23892 3.43387,4.10674 2.125,5.89844 -0.59284,0.81146 -0.16508,1.47656 0.95117,1.47656 1.11659,0 2.03125,1.09371 2.03125,2.43164 0,1.33793 0.80395,2.43164 1.78711,2.43164 4.07975,0 4.11464,7.09926 0.0762,15.51758 -2.32434,4.84561 -5.41997,8.80859 -6.8789,8.80859 -2.94437,0 -3.17981,-4.7919 -0.9668,-19.76171 0.75035,-5.07186 0.71626,-10.70513 -0.0762,-12.51758 -0.79152,-1.81242 -0.70571,-3.67921 0.1914,-4.14844 0.24971,-0.13059 0.50635,-0.17085 0.75977,-0.13672 z m -56.11328,7.44336 c -1.70449,10e-4 -4.30974,1.08447 -7.94922,3.27734 -3.05477,1.84031 -6.48087,2.86164 -7.61328,2.26954 -1.13529,-0.59367 -2.51451,0.40221 -3.07617,2.21875 -1.29621,4.19553 -5.47821,5.59204 -8.25782,2.75781 -1.64384,-1.6758 -1.28317,-2.70278 1.53516,-4.37305 2.88856,-1.71197 3.17603,-2.58531 1.32422,-4.04883 -3.13506,-2.47803 -8.79596,2.92499 -8.15625,7.78516 0.69554,5.28624 -4.02345,5.51397 -6.4668,0.3125 -1.19704,-2.54834 -2.55385,-3.68981 -3.04687,-2.56641 -0.48837,1.11328 0.91827,4.49773 3.12695,7.52149 3.76774,5.15794 3.80797,5.57265 0.63867,6.71289 -2.91974,1.05045 -2.72737,1.36929 1.41406,2.35547 4.57766,1.09004 10.84507,-1.05999 8.60743,-2.95313 -0.58692,-0.49698 4.34964,-3.01615 10.97265,-5.59961 14.60928,-5.69849 27.0642,-6.93568 30.53711,-3.0332 2.02888,2.28012 1.9863,2.38454 -0.28125,0.67383 -1.47747,-1.11492 -3.41807,-2.02735 -4.31055,-2.02735 -0.89245,0 3.37783,3.98811 9.48829,8.86133 6.11049,4.8732 11.27022,8.88732 11.46875,8.91992 0.19989,0.0325 0.21968,-1.50886 0.0508,-3.42382 -0.33818,-3.80014 -6.30175,-9.38107 -19.03125,-17.8125 -4.51607,-2.99129 -8.49833,-5.99238 -8.84961,-6.66797 -0.40168,-0.77219 -1.10231,-1.16101 -2.125,-1.16016 z m 81.74023,1.55274 c 1.99642,0 4.44814,0.61236 5.44922,1.36132 1.00172,0.749 4.83977,2.32126 8.5293,3.49414 7.6297,2.42548 23,14.14156 23,17.53125 0,4.80726 -7.90131,11.43274 -16.63672,13.95118 -4.9299,1.42131 -9.02097,2.53686 -9.09766,2.48046 -0.0759,-0.0566 -2.05598,-0.754 -4.39648,-1.55078 -4.69268,-1.59782 -7.31856,-7.80374 -5.62305,-13.28906 0.60149,-1.94613 0.36465,-4.30576 -0.52734,-5.24414 -0.89213,-0.93838 -2.23044,-5.53795 -2.97461,-10.2207 -1.2196,-7.67675 -0.99529,-8.51367 2.27734,-8.51367 z m -80.16015,3.24414 c 1.05402,0 2.44807,0.72913 3.09961,1.62109 0.65173,0.89194 0.32176,1.62305 -0.73243,1.62305 -1.05388,0 -2.45016,-0.73111 -3.10156,-1.62305 -0.65157,-0.89196 -0.31966,-1.62109 0.73438,-1.62109 z m -7.44336,1.62109 c 1.05436,0 1.91601,0.73111 1.91601,1.62305 0,0.89195 -0.86165,1.62109 -1.91601,1.62109 -1.05403,0 -1.91407,-0.72914 -1.91407,-1.62109 0,-0.89193 0.86004,-1.62305 1.91407,-1.62305 z m 454.35742,4.86523 c 0.99212,0 1.80273,0.72916 1.80273,1.6211 0,0.89195 -1.34516,1.62109 -2.98828,1.62109 -1.64412,0 -2.45399,-0.72914 -1.80273,-1.62109 0.65145,-0.89194 1.99661,-1.6211 2.98828,-1.6211 z m -431.95703,3.24414 c 1.12635,0 3.12103,1.09617 4.43359,2.4336 2.98274,3.04168 2.04525,3.02368 -2.76172,-0.0527 -2.04632,-1.30956 -2.79836,-2.38086 -1.67187,-2.38086 z m -334.33203,1.64454 c 1.84459,-0.0136 3.35546,0.70573 3.35546,1.59765 0,1.97789 -0.21708,1.97789 -3.83398,0 -2.45679,-1.34347 -2.38811,-1.57625 0.47852,-1.59765 z m 764.67968,1.76367 c 0.28922,0.0195 0.49736,0.0695 0.59766,0.15429 0.4011,0.33931 -1.35713,2.77895 -3.9082,5.41993 l -4.63868,4.80078 -0.0703,-4.34961 c -0.0471,-3.00944 1.15849,-4.68096 3.91016,-5.41992 1.64104,-0.44073 3.24201,-0.66397 4.10937,-0.60547 z m -756.5332,1.45508 c 1.5813,0 2.875,1.05258 2.875,2.33789 0,2.70929 -2.73662,4.53886 -4.52539,3.02539 -2.29058,-1.93821 -1.23623,-5.36328 1.65039,-5.36328 z m 379.75977,1.66992 c 1.61777,-0.1875 2.60937,3.87695 2.60937,11.79101 0,6.51123 0.8099,12.53156 1.79883,13.37891 2.78489,2.38565 3.47308,10.42703 1.58594,18.51953 -3.30175,14.15846 -3.5922,15.23614 -4.36133,16.28906 -0.426,0.58354 -1.25721,3.55481 -1.84766,6.60157 -0.59075,3.04676 -2.06889,7.18063 -3.2832,9.1875 -2.24276,3.70539 -6.2372,4.80726 -8.11524,2.23632 -2.31987,-3.17626 -6.53431,-30.87517 -6.07617,-39.9414 0.36282,-7.18793 2.00805,-12.11404 6.29297,-18.85547 3.19088,-5.01923 6.73928,-11.40415 7.88672,-14.18945 1.34349,-3.26103 2.5391,-4.90509 3.50977,-5.01758 z m -32.49024,13.59765 c 0.21655,0.0427 0.52382,0.23576 0.92383,0.57422 1.11197,0.94238 1.64641,2.67183 1.18555,3.8418 -0.47863,1.21462 -1.34565,0.48002 -2.02344,-1.71289 -0.5212,-1.68593 -0.6205,-2.56654 -0.27344,-2.69531 0.0521,-0.0193 0.11532,-0.022 0.1875,-0.008 z m 84.10156,2.57227 h 0.002 c 2.13174,0 2.6485,0.94241 1.78515,3.24414 -0.669,1.78392 -0.3562,3.24414 0.69336,3.24414 2.44943,0 10.27209,17.567 8.75,19.65039 -0.63187,0.86536 -0.10606,2.63672 1.16797,3.93555 1.8364,1.87224 1.77286,2.36702 -0.3125,2.38672 -2.09942,0.0199 -2.13194,0.2912 -0.16015,1.34961 4.34313,2.33161 -2.02252,12.87497 -9.21485,15.26367 -2.26628,0.75268 -2.1729,0.97019 0.45508,1.07226 2.11406,0.0821 2.89927,0.99979 2.19141,2.56055 -0.89071,1.96426 0.68815,2.41298 8.20507,2.33008 7.52363,-0.083 8.47933,-0.3844 4.99219,-1.57031 -2.37298,-0.80701 -5.70518,-1.0157 -7.4082,-0.46289 -2.61646,0.84961 -2.76451,0.48036 -0.94727,-2.39258 2.97542,-4.70428 5.22778,-5.59602 11.28321,-4.47071 7.04519,1.30934 28.26154,16.86612 28.07422,20.58594 -0.10401,2.07465 0.51391,2.47553 2.10351,1.35938 1.53363,-1.07706 3.26538,-0.6371 5.42383,1.38086 1.7435,1.63013 2.80704,3.26897 2.36328,3.64257 -0.44343,0.37357 9.27277,0.47203 21.5918,0.21875 l 22.39648,-0.45898 7.11328,5.50977 c 8.39372,6.50554 20.61328,24.06962 20.61328,29.6289 0,2.14742 -1.7277,6.62671 -3.83593,9.95508 -2.10806,3.32835 -3.83008,7.09134 -3.83008,8.36133 0,1.27003 -3.6757,5.29444 -8.16602,8.94336 -12.68292,10.30606 -18.37664,16.27464 -14.35742,15.05273 8.1587,-2.48023 2.4305,11.39601 -12.42578,30.09766 -8.26637,10.40568 -12.39297,14.22119 -15.47461,14.30469 -3.47356,0.0942 -3.63254,0.30545 -0.91211,1.21875 2.78311,0.93426 1.30672,3.38631 -9.58008,15.88476 -7.08086,8.12885 -18.85758,20.3793 -26.16797,27.22461 -7.31072,6.84535 -14.71442,14.42429 -16.45312,16.8418 -4.88835,6.79623 -24.60139,21.32453 -30.3086,22.33593 -2.81194,0.4984 -6.67525,1.62546 -8.58593,2.50586 -1.91082,0.8805 -4.97291,1.19894 -6.80469,0.70704 -2.10582,-0.5656 -5.85691,1.04611 -10.20117,4.38281 h -0.002 c -3.77877,2.9023 -9.56528,6.59739 -12.85743,8.21289 -8.67606,4.2578 -9.27618,0.98514 -2.91601,-15.91016 5.03582,-13.3761 6.02032,-14.64446 22.19922,-28.57031 9.31146,-8.01507 18.19275,-16.54232 19.73437,-18.94922 6.05544,-9.4543 6.14764,-9.49648 11.50195,-5.24023 4.8944,3.8905 13.86967,6.45338 11.56836,3.30273 -0.65348,-0.89464 -2.32455,-1.62695 -3.71484,-1.62695 -1.38949,0 -3.61434,-1.10823 -4.94336,-2.46289 -1.98057,-2.01946 -1.7638,-3.08143 1.20313,-5.89258 3.57737,-3.38962 3.57012,-3.41576 -0.69336,-2.29297 -6.09528,1.6052 -5.35531,-0.16479 1.28515,-3.07031 3.87121,-1.69385 5.82288,-1.89192 6.31641,-0.63867 0.42311,1.07342 2.39622,1.36179 4.8418,0.70507 2.34995,-0.63116 3.71532,-2.03029 3.16406,-3.24609 -0.55427,-1.22121 0.71965,-2.50929 2.97265,-3.00781 2.16789,-0.47969 3.93946,-0.26741 3.93946,0.47265 0,1.7403 11.86926,-3.20971 14.37695,-5.99609 1.05419,-1.17126 7.30412,-2.59986 13.89258,-3.17578 12.09809,-1.0575 16.72426,-3.83008 6.39062,-3.83008 -3.07428,0 -5.89883,-0.78232 -6.27539,-1.73828 -0.39897,-1.01244 -2.8576,-0.28994 -5.89062,1.72852 -2.86344,1.90586 -6.04024,3.02862 -7.0586,2.49609 -3.02611,-1.58255 -0.14608,-5.43699 5.33204,-7.13477 4.89055,-1.51563 4.91921,-1.58635 0.65429,-1.70898 -6.03145,-0.1734 -4.80388,-5.2809 1.46289,-6.08789 6.75226,-0.86957 7.56032,-2.26326 0.91602,-1.58008 -12.02818,1.23677 -17.73569,3.10083 -18.66016,6.0918 -0.59859,1.93695 0.0473,3.06836 1.74805,3.06836 1.48275,0 2.69531,0.7311 2.69531,1.62304 0,0.89194 -1.67438,1.6211 -3.7207,1.6211 -2.04584,0 -4.25323,0.72916 -4.9043,1.62109 -0.6517,0.89195 -2.04526,1.62305 -3.09961,1.62305 -1.05404,0 -1.38996,-0.72182 -0.74609,-1.60352 2.5542,-3.49663 -4.73786,0.49588 -7.5586,4.13867 -1.65486,2.13639 -5.61389,5.02544 -8.80078,6.41993 -3.18689,1.39446 -5.37463,3.1111 -4.85937,3.8164 0.51525,0.70532 -0.10148,1.31698 -1.37305,1.35938 -1.27127,0.0424 -3.60604,0.51127 -5.1875,1.04101 -1.69389,0.5676 -5.45055,-1.02268 -9.14648,-3.87109 l -6.27149,-4.83398 3.8418,-7.13672 c 4.51655,-8.38883 13.64125,-32.17974 12.66016,-33.00977 -0.37258,-0.31543 -2.13649,2.93561 -3.92188,7.22656 -8.36828,20.11595 -13.27777,29.69193 -15.19531,29.64453 -1.14969,-0.0284 -3.72326,-1.09622 -5.7168,-2.37304 -3.0162,-1.93215 -3.4158,-3.60301 -2.38672,-9.95703 1.48819,-9.18843 0.21578,-8.81253 -2.30468,0.67968 -1.09273,4.1104 -1.12308,7.2219 -0.0762,7.76953 0.96253,0.5024 1.31137,1.50934 0.7793,2.23829 -0.86926,1.19002 5.76199,3.84593 8.85547,3.54687 0.68257,-0.066 0.81966,1.49628 0.30664,3.47266 -2.09687,8.08422 -2.89507,8.58795 -5.69531,3.59375 l -2.72852,-4.86524 1.42578,4.86524 c 0.78255,2.67587 1.41326,7.08208 1.39258,9.79101 -0.0299,4.84054 -7.25887,22.02308 -11.18945,26.59571 -1.58641,1.84564 -1.30618,2.10977 1.34961,1.26757 1.84476,-0.58499 3.35351,-0.40583 3.35351,0.39844 0,0.80432 -2.58796,1.40042 -5.7539,1.32422 -3.16546,-0.0761 -7.26196,0.98687 -9.10352,2.36133 -3.29775,2.46132 -14.52296,5.23032 -17.02344,4.19922 -2.22259,-0.9167 -0.55088,-23.11474 1.83985,-24.42774 1.68511,-0.92532 1.60845,-1.5883 -0.30078,-2.63086 -2.78892,-1.5248 -2.81081,-16.04382 -0.0312,-22.57031 3.31279,-7.77833 3.42279,-11.5729 0.30468,-10.56055 -3.15938,1.02583 -3.17336,1.72654 0.99414,-53.04882 0.8482,-11.1494 0.83727,-20.51518 -0.0234,-20.8125 -2.23782,-0.77324 -1.93723,-5.13672 0.35351,-5.13672 1.05452,0 1.91602,-3.22526 1.91602,-7.16797 0,-6.50809 9.69905,-33.50512 13.44726,-37.42774 2.14247,-2.24236 11.03671,-33.72418 12.59961,-44.59765 1.51234,-10.51928 4.54547,-13.96113 14.53711,-16.49414 4.05759,-1.02859 8.33506,-2.84746 9.50586,-4.04102 1.17049,-1.19359 3.3175,-2.16992 4.76953,-2.16992 1.45219,0 2.64063,-0.72916 2.64063,-1.62109 0,-0.89198 1.35143,-1.62305 3.0039,-1.62305 z m -73.33789,10.00586 c 0.23224,0.0182 0.58746,0.14359 1.04493,0.38281 1.59361,0.83342 1.65171,2.05396 0.20703,4.33789 -1.10571,1.74819 -1.48787,3.89403 -0.84961,4.76758 1.97146,2.69896 0.17857,1.71421 -4.53907,-2.49414 -3.5769,-3.19072 -3.87542,-4.02539 -1.4375,-4.02539 1.69151,0 3.08509,0.91242 3.10743,2.02734 0.0202,1.39108 0.58082,1.28806 1.78906,-0.32812 0.96846,-1.29534 1.25137,-3.051 0.63086,-3.90039 -0.38773,-0.53084 -0.34021,-0.79799 0.0469,-0.76758 z m -146.29687,10.55469 c -0.61359,0.0174 -1.05226,2.05868 -1.01172,4.98437 0.0444,3.34365 -0.59165,7.90487 -1.41406,10.13477 -1.2671,3.43406 -0.98915,3.31034 1.82422,-0.81055 3.2232,-4.72103 3.65378,-11.71769 0.87304,-14.18945 -0.094,-0.0835 -0.18382,-0.12163 -0.27148,-0.11914 z m 144.66015,3.90429 c 0.76297,-0.0467 1.51211,0.8242 2.66407,2.69922 0.9938,1.61788 1.03681,4.23301 0.0996,6.08203 l -1.64649,3.24219 0.19141,-3.24219 c 0.34952,-5.99213 -0.23601,-7.49745 -2.46484,-6.33203 -1.37094,0.71692 -1.69487,0.44323 -0.84766,-0.71679 0.80777,-1.10581 1.41048,-1.69611 2.0039,-1.73243 z m 349.9961,3.10547 c 0.99176,0 1.80469,0.72913 1.80469,1.6211 0,0.89194 -1.34684,1.62109 -2.99024,1.62109 -1.64357,0 -2.45436,-0.72915 -1.80273,-1.62109 0.65154,-0.89197 1.99616,-1.6211 2.98828,-1.6211 z m -312.64063,3.4082 c 0.35399,0.0452 -0.53654,0.89822 -2.57617,2.8418 -2.00793,1.91371 -4.43199,3.47852 -5.38476,3.47852 -2.69818,0 0.17114,-3.02426 4.83007,-5.0918 1.82714,-0.81089 2.85552,-1.26369 3.13086,-1.22852 z m -36.13086,11.03126 h 0.002 c 0.0621,-0.006 0.16818,0.0428 0.32031,0.15429 0.60818,0.44599 1.23351,1.34558 1.38867,1.99805 0.15581,0.65247 1.0346,3.40372 1.95313,6.11328 1.02557,3.0241 0.97982,4.564 -0.1211,3.98828 -0.9862,-0.51582 -1.79492,-0.16528 -1.79492,0.7793 h -0.002 c 0,1.92569 -2.52259,2.28523 -4.47071,0.63672 -2.2138,-1.87295 -1.38755,-3.71882 1.27735,-2.85352 1.46755,0.47653 2.55664,-0.26498 2.55664,-1.74219 0,-1.47721 -1.08909,-2.21871 -2.55664,-1.74218 -1.76189,0.57215 -2.50819,-0.53798 -2.4043,-3.57813 0.0832,-2.42489 0.58576,-3.49776 1.11719,-2.38281 0.53191,1.11492 1.8075,2.02734 2.83594,2.02734 1.02876,0 1.25043,-0.91242 0.49218,-2.02734 -0.5687,-0.83619 -0.78034,-1.35303 -0.59375,-1.37109 z m 154.4336,5.80468 c -0.76504,0.0346 -1.27149,0.3487 -1.27149,0.88867 0,0.86396 1.29418,1.57227 2.875,1.57227 1.58129,0 2.875,-0.28815 2.875,-0.63867 0,-0.35057 -1.29371,-1.0569 -2.875,-1.57031 -0.59281,-0.19252 -1.14449,-0.27273 -1.60351,-0.25196 z m 32.1582,4.62696 c -0.51004,0.0427 -0.8457,0.39008 -0.8457,0.98046 0,0.94458 0.86198,1.71875 1.91601,1.71875 1.05419,0 1.91407,-0.32345 1.91407,-0.71679 0,-0.39331 -0.85988,-1.16554 -1.91407,-1.7168 -0.39526,-0.20673 -0.7643,-0.29125 -1.07031,-0.26562 z m -188.41211,5.9414 c 0.9078,0 1.65039,1.82286 1.65039,4.05274 0,2.22988 -0.32996,4.05468 -0.73437,4.05468 -0.40424,0 -1.14666,-1.82481 -1.65039,-4.05468 -0.50391,-2.22988 -0.17362,-4.05274 0.73437,-4.05274 z m 28.7207,0 c 1.51492,0 1.4655,0.69814 -0.16601,2.36133 -1.27464,1.29883 -1.86866,2.97592 -1.32031,3.72656 0.54868,0.75061 0.2264,2.41864 -0.71485,3.70703 -1.51554,2.07565 -1.57171,-0.77806 -0.16992,-8.58007 0.12015,-0.66896 1.18767,-1.21485 2.37109,-1.21485 z m 241.25977,1.62305 c -1.05403,0 -1.91797,0.72915 -1.91797,1.62109 0,0.89195 0.86394,1.6211 1.91797,1.6211 1.0542,-10e-6 1.91602,-0.72915 1.91602,-1.6211 0,-0.89194 -0.86182,-1.62109 -1.91602,-1.62109 z m -447.7207,1.72265 c 0.64369,-0.10181 1.80336,0.21204 3.86328,0.88086 1.66735,0.5414 3.03125,1.63706 3.03125,2.4336 0,0.79649 -0.86167,1.44726 -1.91602,1.44726 -1.05402,0 -1.91797,-0.7722 -1.91797,-1.71679 0,-0.94459 -0.86198,-1.2661 -1.91601,-0.71485 -1.0542,0.55125 -1.91602,0.22975 -1.91602,-0.71484 0,-0.99463 0.12782,-1.51341 0.77149,-1.61524 z m 198.36328,4.66993 c 0.3997,-0.0351 0.8645,0.11913 1.35156,0.53125 0.63714,0.53888 0.79547,1.90253 0.35156,3.02929 -0.64901,1.64751 -1.10099,1.6456 -2.30859,-0.008 -1.19891,-1.64138 -0.59364,-3.44756 0.60547,-3.55273 z m -194.31445,1.37109 c 5.14761,-0.15734 11.93794,2.54331 18.50586,8.15625 l 7.54101,6.44531 -11.24609,1.10352 c -6.1855,0.6074 -12.4836,1.82702 -13.9961,2.70898 -2.09559,1.22188 -1.80862,1.38174 1.20118,0.67383 2.17221,-0.51096 10.2212,-1.10582 17.88671,-1.32226 12.3675,-0.34917 14.32536,0.009 17.375,3.18554 1.89035,1.96898 4.02108,3.08626 4.73438,2.48242 0.71343,-0.60384 0.76585,0.0723 0.11719,1.50196 -0.6482,1.42961 0.17889,5.34998 1.83984,8.71289 1.66047,3.36288 2.56054,6.50229 2,6.97656 -0.56053,0.47425 -4.66836,1.42428 -9.12891,2.10938 l -8.10937,1.24414 8.67578,-0.49414 c 5.93194,-0.33853 9.54184,0.29079 11.41797,1.99023 2.03239,1.84073 2.14471,2.65499 0.42969,3.13867 -1.27368,0.35921 -2.31446,1.29826 -2.31446,2.08789 0,0.78962 1.18196,1.05323 2.62696,0.58399 3.07543,-0.99891 5.77268,3.62358 2.96875,5.08984 -1.04669,0.54722 -5.32408,0.50543 -9.50196,-0.0918 -6.20037,-0.88633 -7.59375,-0.61162 -7.59375,1.49024 0,1.41636 -1.27903,2.57422 -2.83984,2.57422 -1.56148,0 -3.36092,1.76217 -4,3.91601 -0.67523,2.27734 -3.52215,4.74403 -6.80469,5.89453 -3.10485,1.08807 -5.25985,2.303 -4.78906,2.70118 0.47078,0.39817 2.72662,-0.12366 5.01562,-1.16016 5.46292,-2.47383 6.7378,-1.12855 4.18165,4.4082 -1.14569,2.48144 -2.30487,9.61963 -2.57618,15.86328 -0.60084,13.81594 -7.31005,29.42477 -16.56054,38.51758 -3.32576,3.26906 -8.08188,3.58987 -11.06641,0.74805 -1.13514,-1.08102 -5.75553,-4.77273 -10.26953,-8.20313 -8.18047,-6.21674 -13.50531,-12.90714 -13.5293,-17 -0.008,-1.58168 1.61937,-1.85396 6.10938,-1.01953 5.64512,1.04909 5.87672,0.93376 3.00976,-1.49219 -1.70958,-1.44668 -4.51372,-2.63085 -6.23242,-2.63085 -1.71871,0 -2.62824,-0.67946 -2.02148,-1.50977 0.60644,-0.83029 0.34186,-1.90626 -0.58789,-2.39258 -0.92846,-0.48634 -1.41451,-2.54409 -1.07618,-4.57226 2.40753,-14.4253 3.08303,-16.07833 7.12305,-17.45508 3.45804,-1.17847 3.58861,-1.45251 0.73828,-1.53711 -4.80928,-0.14259 -2.14043,-3.19613 5.13477,-5.875 l 5.99804,-2.20899 -5.47461,-0.0625 c -4.19085,-0.0486 -5.20272,-0.66581 -4.3125,-2.6289 0.63989,-1.41088 1.16407,-2.87112 1.16407,-3.24414 0,-0.37303 1.94065,-0.70202 4.3125,-0.73242 4.60501,-0.0588 21.3517,-6.28426 17.15429,-6.37696 -1.37014,-0.0303 -4.98812,1.03618 -8.03906,2.3711 -3.84981,1.68448 -6.92218,1.98492 -10.04492,0.98046 -5.2268,-1.68151 -10.79386,-6.65039 -7.45117,-6.65039 1.1833,0 2.17891,0.91242 2.21094,2.02735 0.0322,1.11494 0.97133,0.69423 2.08984,-0.9336 1.11897,-1.62778 1.74095,-3.14613 1.38086,-3.375 -0.36025,-0.22887 -2.78833,-1.63295 -5.39453,-3.12109 -2.60543,-1.48813 -3.68535,-2.70703 -2.39649,-2.70703 3.33312,0 2.91016,-4.78232 -0.52148,-5.89648 -1.57728,-0.51147 -2.34593,-1.63604 -1.71485,-2.5 1.66305,-2.27683 7.03906,4.86274 5.76954,7.6621 -1.31446,2.89835 3.32559,3.15179 6.04296,0.33008 1.0734,-1.11492 2.85837,-4.8383 3.9668,-8.27344 1.1081,-3.4351 3.57028,-7.30385 5.4707,-8.59765 3.25951,-2.21921 3.22475,-2.30026 -0.60156,-1.41797 -3.47706,0.80173 -3.92414,0.36461 -3.14844,-3.06836 0.55442,-2.45554 2.49371,-4.2684 5.01368,-4.68555 4.01265,-0.66426 4.00756,-0.68477 -0.20313,-0.90039 -3.33055,-0.17058 -4.31445,-1.20683 -4.31445,-4.55273 0,-5.81367 3.50671,-8.82899 8.6543,-8.98633 z m 186.72851,0.34375 c 1.11658,0 2.03125,0.72913 2.03125,1.62109 0,0.89196 -0.38082,1.6211 -0.8457,1.6211 -0.46486,0 -1.37824,-0.72914 -2.0293,-1.6211 -0.65172,-0.89196 -0.27266,-1.62109 0.84375,-1.62109 z m 3.08985,5.4043 c 1.43539,0 2.99506,0.85196 3.46679,1.89258 0.47175,1.04062 -0.31442,1.89257 -1.75,1.89257 -1.43522,0 -2.99652,-0.85195 -3.46875,-1.89257 -0.4719,-1.04062 0.3164,-1.89258 1.75196,-1.89258 z M 457.68358,735.293 c 0.34963,-0.0151 0.85845,0.0755 1.49805,0.2832 1.63616,0.53117 2.97656,1.253 2.97656,1.60352 0,1.31345 -3.65359,0.57613 -4.77929,-0.96485 -0.41962,-0.57455 -0.27804,-0.89664 0.30468,-0.92187 z m 156.53321,4.76367 c 0.51803,0.011 0.577,0.64804 0.0859,1.73047 -1.27399,2.80948 -2.64843,3.32495 -2.64843,0.99219 0,-0.83927 0.85413,-1.97262 1.89648,-2.51758 0.27163,-0.14204 0.49335,-0.20876 0.66602,-0.20508 z m 191.20117,4.5625 c 0.98328,-0.0459 2.46911,0.1882 4.53515,0.62695 6.00843,1.27602 8.53645,5.23285 4.66602,7.30664 -4.45257,2.38566 -6.74074,1.69016 -9.14844,-2.78125 -1.93726,-3.59753 -2.21594,-5.05132 -0.0527,-5.15234 z m -409.97656,6.38477 c 0.32939,0.0816 0.93587,0.7027 1.7832,1.93554 1.11589,1.62783 1.63023,3.30121 1.13672,3.71875 -0.49318,0.41752 -1.43434,-0.42567 -2.0918,-1.875 -1.15608,-2.54884 -1.3771,-3.9152 -0.82812,-3.77929 z m -95.67383,13.12695 c 0.27623,-0.0349 0.69045,0.37123 1.29492,1.17969 0.96781,1.29535 1.336,2.93687 0.81641,3.64843 -0.51971,0.71153 -0.2475,1.31018 0.60547,1.33008 0.8528,0.0198 3.70631,1.4628 6.34179,3.20703 4.98813,3.30123 3.71665,4.01771 -2.875,1.6211 -2.10823,-0.76658 -2.97036,-1.46674 -1.91601,-1.55664 1.0542,-0.0899 0.40758,-0.90726 -1.4375,-1.81641 -1.84443,-0.90913 -3.34655,-3.25813 -3.32422,-5.2207 0.0129,-1.57488 0.13899,-2.3477 0.49414,-2.39258 z m 32.95312,10.11523 c -0.34691,-0.10927 -0.59179,0.82173 -0.59179,2.49414 0,2.22984 0.43456,3.14227 0.96679,2.02735 0.53157,-1.11494 0.53157,-2.93974 0,-4.05469 -0.13306,-0.27873 -0.25937,-0.43037 -0.375,-0.4668 z m -18.21289,4.30079 c 0.64273,0.0153 1.4149,0.30461 2.1836,0.95507 1.37657,1.16468 1.41048,2.07131 0.10156,2.75586 -1.07355,0.56123 -2.52876,0.23148 -3.23438,-0.73437 -1.2522,-1.7142 -0.46478,-3.0103 0.94922,-2.97656 z m 284.42774,0.375 c -0.29071,-0.0372 -0.48994,0.55749 -0.54688,1.73828 h 0.004 c -0.0833,1.70956 0.36903,2.66584 1.00586,2.12695 0.63588,-0.53889 0.70371,-1.93677 0.15039,-3.10742 -0.2294,-0.48514 -0.43692,-0.73547 -0.61133,-0.75781 z m -137.73828,5.92578 c 1.59713,0 2.87695,1.44222 2.87695,3.24414 0,1.80193 -1.27982,3.24414 -2.87695,3.24414 -1.58129,0 -2.87305,1.0507 -2.87305,2.33594 0,4.09073 -3.36003,4.26727 -4.27344,0.2246 -0.62836,-2.78086 -0.14541,-3.64903 1.69727,-3.05078 1.65441,0.53715 2.57617,-0.38551 2.57617,-2.58008 0,-1.95615 1.22729,-3.41796 2.87305,-3.41796 z m -141.46289,0.0488 c 1.25528,-0.0271 2.82225,0.69312 3.48437,1.59961 0.66213,0.90649 2.00883,1.228 2.99023,0.71485 0.9814,-0.51324 1.78321,-0.47242 1.78321,0.0898 0,0.56234 -1.46216,2.24686 -3.24805,3.74414 -3.03989,2.5489 -3.16706,2.54491 -1.99609,-0.0723 0.792,-1.76962 0.0515,-3.38753 -2.02149,-4.41016 -1.80109,-0.88844 -2.24778,-1.63882 -0.99218,-1.66602 z m 154.33984,1.2129 c 6.71146,-0.0704 6.96637,4.4274 -0.20313,7.56445 -8.46553,3.70408 -10.43495,3.27479 -8.89062,-1.93164 1.61712,-5.45197 0.88875,-4.92293 7.66406,-5.55469 0.50452,-0.0471 0.98225,-0.0734 1.42969,-0.0781 z m 5.33203,6.58398 v 3.86133 c 0,2.12424 -1.03412,4.73825 -2.29883,5.80859 -2.85047,2.41197 -10.45176,2.5477 -12.1543,0.2168 -0.69472,-0.95128 -0.96278,-1.92058 -0.59374,-2.15235 0.36887,-0.23173 3.90851,-2.06656 7.86132,-4.07812 z m 124.04883,1.58203 c 0.2163,0.0203 0.40064,0.12275 0.54492,0.32031 0.79568,1.0893 0.26133,3.9024 -1.1875,6.25196 -1.44867,2.34952 -2.64648,6.27958 -2.64648,8.73242 -0.008,3.21148 -0.95003,4.42403 -3.36524,4.33203 -2.00376,-0.0765 -2.38844,-0.45862 -0.95703,-0.94727 1.31783,-0.44988 2.39453,-1.89468 2.39453,-3.21093 0,-1.31625 -0.8018,-1.97214 -1.7832,-1.45899 -0.98125,0.51317 -2.40915,0.0775 -3.17188,-0.9668 -0.86624,-1.18586 -0.55563,-1.46488 0.82618,-0.74218 1.27174,0.665 2.21093,0.18872 2.21093,-1.1211 0,-3.88428 5.04381,-11.38553 7.13477,-11.18945 z m -121.26953,8.875 c 0.2988,0.0272 0.67532,0.1492 1.09961,0.37109 1.44307,0.75449 1.38886,1.76036 -0.18555,3.36524 -3.0658,3.12579 -5.61684,2.87366 -5.58008,-0.55078 0.0252,-2.42537 0.29934,-2.4832 1.88672,-0.4043 1.70045,2.22625 2.76886,1.13025 2.0957,-2.14844 -0.0943,-0.45954 0.18561,-0.67823 0.6836,-0.63281 z m -141.6211,1.1582 c 1.70289,0 2.42146,0.77433 1.66993,1.80274 -0.72432,0.99169 -0.1265,2.44018 1.32617,3.21875 1.45285,0.77856 1.73407,1.4273 0.62695,1.4414 -2.35921,0.0291 -6.61133,-3.29207 -6.61133,-5.16406 0,-0.71354 1.3446,-1.29883 2.98828,-1.29883 z m 125.40821,0.875 c 0.66,0.0104 1.54568,0.13178 2.69922,0.31836 4.33418,0.70107 4.98632,1.61767 4.98632,7.00977 0,3.41116 -0.80606,6.6226 -1.78906,7.13672 -0.98285,0.51411 -1.81041,2.92783 -1.83594,5.36523 -0.0648,6.10825 -1.28929,12.51474 -2.78515,14.5625 -0.68786,0.94186 -3.70285,2.43644 -6.69922,3.32031 -5.09755,1.50356 -5.39063,1.35674 -4.57031,-2.27343 0.48198,-2.13398 1.55069,-3.87891 2.375,-3.87891 0.82416,0 2.10263,-5.10984 2.84375,-11.35352 0.74129,-6.24365 2.10086,-11.35156 3.02148,-11.35156 0.92094,0 1.17787,-2.10245 0.57031,-4.67187 -0.7663,-3.24276 -0.7964,-4.21481 1.1836,-4.1836 z m -17.51368,3.21875 c 0.19462,-0.0181 0.407,0.0274 0.63086,0.14454 0.89598,0.46834 1.13412,1.531 0.52735,2.36132 -1.54976,2.12186 -2.1543,1.88295 -2.1543,-0.85156 0,-0.97401 0.41219,-1.59995 0.99609,-1.6543 z m 4.6875,0.92774 c 0.0361,-0.007 0.0823,-0.003 0.13672,0.0137 0.26116,0.0782 0.73555,0.42339 1.44532,1.01953 1.30983,1.10008 1.89902,2.40889 1.30859,2.9082 -0.58997,0.4993 -1.66311,-0.40063 -2.38281,-2 -0.56899,-1.26399 -0.76055,-1.89157 -0.50782,-1.9414 z m -108.6582,3.3418 c 0.44159,-0.0708 0.75391,0.37342 0.75391,1.19335 0,1.09341 0.7191,1.61171 1.59765,1.15235 0.87823,-0.45937 1.59766,0.22669 1.59766,1.52539 0,2.94816 -0.24264,2.9408 -3.23438,-0.10938 -1.3322,-1.35951 -1.87066,-2.94061 -1.19335,-3.51367 0.16933,-0.14327 0.33131,-0.22444 0.47851,-0.24804 z m 43.32617,6.35156 c 0.24831,0.006 0.45596,0.0705 0.60352,0.19531 0.59011,0.49932 -0.47491,1.40467 -2.36524,2.01367 -2.7318,0.8801 -2.95109,0.69343 -1.07226,-0.9082 0.97482,-0.8312 2.08906,-1.31932 2.83398,-1.30078 z m 61.625,0.4414 c 0.17426,0.0223 0.38005,0.27268 0.60938,0.75782 0.55493,1.17067 0.48678,2.56856 -0.15039,3.10742 -0.63651,0.53888 -1.08906,-0.41934 -1.00586,-2.12891 0.0575,-1.18076 0.25641,-1.77355 0.54687,-1.73633 z m 26.41602,0.28907 c 0.58379,0.0543 0.99414,0.68024 0.99414,1.65429 -1e-5,2.73449 -0.60225,2.97339 -2.15234,0.85157 -0.60646,-0.83033 -0.3706,-1.89298 0.52539,-2.36133 0.22384,-0.1171 0.43821,-0.16264 0.63281,-0.14453 z m 122.38281,7.46875 c 0.86852,0 1.73774,0.11295 2.39649,0.33789 1.3175,0.44989 0.23867,0.81836 -2.39649,0.81836 -2.63564,0 -3.71219,-0.36847 -2.39453,-0.81836 0.65891,-0.22494 1.52602,-0.33789 2.39453,-0.33789 z m -123.62305,8.43945 c 1.3799,0 2.06856,0.97287 1.5293,2.16211 -0.53974,1.18928 -1.22808,2.16211 -1.5293,2.16211 -0.30171,0 -0.9902,-0.97283 -1.52929,-2.16211 -0.5391,-1.18924 0.14892,-2.16211 1.52929,-2.16211 z m 124.70313,9.94336 c 1.29859,0.0551 2.75195,0.66504 2.75195,1.50391 0,0.24464 -1.25595,0.44531 -2.79101,0.44531 -1.53473,0 -2.33686,-0.61911 -1.78321,-1.37696 0.31997,-0.43806 1.04309,-0.60534 1.82227,-0.57226 z m 0.26953,4.77734 c 0.73683,-0.1914 0.54934,1.65829 -0.64062,5.41602 -0.63571,2.00688 -1.91812,3.64844 -2.84961,3.64844 -2.3413,0 -2.02414,-1.74148 1.18164,-6.48633 1.09034,-1.61396 1.86649,-2.46329 2.30859,-2.57813 z m -144.99414,0.14258 c 1.14767,-0.10565 3.61477,2.71447 5.69727,6.58203 3.88531,7.21702 3.90654,7.58561 0.55664,9.73438 -3.25497,2.08752 -3.26202,2.23705 -0.12696,2.28515 3.61514,0.0556 4.59709,4.07453 1.4043,5.74414 -1.07277,0.56023 -1.48937,1.64735 -0.92773,2.41602 h 0.004 c 2.25444,3.08631 -2.73707,2.99182 -7.44336,-0.14063 -6.02777,-4.01182 -7.14628,-12.75149 -1.66015,-12.96093 2.0036,-0.0765 2.38811,-0.45861 0.95703,-0.94727 -2.87688,-0.98221 -3.18655,-6.4289 -0.44727,-7.86133 1.0726,-0.56024 1.48743,-1.64733 0.92578,-2.41601 -0.56149,-0.76869 -0.17897,-1.83706 0.84961,-2.375 0.0643,-0.0336 0.13442,-0.0536 0.21094,-0.0606 z m 248.21289,4.05664 c 1.64399,0 2.45576,0.73112 1.80469,1.62305 -0.65187,0.89197 -1.99632,1.62109 -2.98828,1.62109 -0.99215,0 -1.80274,-0.72912 -1.80274,-1.62109 0,-0.89193 1.34298,-1.62305 2.98633,-1.62305 z m -5.99609,3.20313 c 0.82441,-0.0291 0.99114,0.4907 0.12695,1.67382 -0.65603,0.8983 -3.94176,2.76165 -7.30078,4.14063 l -6.10938,2.50781 5.37891,-4.14062 c 3.32545,-2.56047 6.53028,-4.13319 7.9043,-4.18164 z m -96.76953,4.90625 c 1.11625,0 2.02929,0.72916 2.02929,1.62109 0,0.89195 -0.37889,1.62305 -0.84375,1.62305 -0.46488,0 -1.37791,-0.7311 -2.02929,-1.62305 -0.65156,-0.89193 -0.27268,-1.62109 0.84375,-1.62109 z m -129.7793,1.62109 c 1.12219,0 0.9379,1.03145 -0.4375,2.43359 -1.31207,1.33791 -2.68347,2.43164 -3.04883,2.43164 -0.36459,0 -0.16909,-1.09373 0.4375,-2.43164 0.60692,-1.33793 1.97881,-2.43359 3.04883,-2.43359 z m 183.67383,4.10742 c 2.17373,-0.0389 8.84518,5.25635 7.38086,6.0918 -0.43258,0.24692 -2.16145,1.33041 -3.83985,2.4082 -1.67803,1.07785 -3.6184,1.47948 -4.3125,0.89258 -1.83421,-1.55214 -1.54402,-8.29369 0.40039,-9.31055 0.10117,-0.0529 0.22619,-0.0794 0.3711,-0.082 z m -186.875,5.62305 c 0.46484,0 0.84765,0.7311 0.84765,1.62305 0,0.89195 -0.91482,1.62109 -2.03125,1.62109 -1.11624,0 -1.49713,-0.72914 -0.8457,-1.62109 0.65171,-0.89195 1.56442,-1.62305 2.0293,-1.62305 z m 196.95703,3.92383 c 0.95833,-0.0872 -0.33556,1.4127 -4.26563,5.61132 -3.44011,3.67535 -7.47413,6.68165 -8.96679,6.68165 -1.49249,0 -2.71485,0.73109 -2.71485,1.62304 -10e-6,0.89197 -0.94261,1.6211 -2.09375,1.6211 -2.74363,0 4.06801,-9.84279 7.84375,-11.33399 1.58129,-0.62449 4.97,-2.06691 7.53125,-3.20508 1.32978,-0.59099 2.2304,-0.95842 2.66602,-0.99804 z m -20.16016,19.96679 c 0.24264,0.027 0.37891,0.15493 0.37891,0.39453 0,0.85185 -1.72364,2.33042 -3.83203,3.28516 -2.10838,0.9547 -3.83399,1.50765 -3.83399,1.22852 0,-0.2791 1.72561,-1.75773 3.83399,-3.28516 1.31774,-0.95465 2.48516,-1.52897 3.17578,-1.61719 0.10359,-0.0132 0.19646,-0.0149 0.27734,-0.006 z m -153.10937,21.7168 c -0.66584,-0.0232 -1.42548,0.0802 -2.11719,0.31445 -1.52914,0.51769 -1.07449,0.90267 1.1582,0.98047 2.0207,0.0704 3.15231,-0.31266 2.51563,-0.85156 -0.31826,-0.2694 -0.8908,-0.42017 -1.55664,-0.44336 z m 125.76367,1.9082 c 0.13353,0.008 0.22838,0.0328 0.27734,0.0742 0.39196,0.33143 -1.03498,4.05173 -3.16992,8.26563 -2.13464,4.214 -3.88086,8.55494 -3.88086,9.64844 10e-6,1.09349 -1.21285,3.39021 -2.69336,5.10351 -2.42416,2.8051 -2.75733,2.01498 -3.35351,-7.94922 l -0.66211,-11.06445 6.52539,-2.30274 c 3.13916,-1.10811 6.02232,-1.8337 6.95703,-1.77539 z"
       id="path1074"
       inkscape:connector-curvature="0" />
    <g
       aria-label="UnderlorD"
       transform="translate(-126.58438,340.13428)"
       style="font-style:normal;font-variant:normal;font-weight:normal;font-stretch:normal;font-size:20px;line-height:125%;font-family:Sans;-inkscape-font-specification:'Sans, Normal';text-align:start;letter-spacing:0px;word-spacing:0px;writing-mode:lr-tb;text-anchor:start;fill:#ffffff;fill-opacity:1;stroke:none;stroke-width:1px;stroke-linecap:butt;stroke-linejoin:miter;stroke-opacity:1"
       id="flowRoot1076">
      <path
         d="m 235.83238,147.39548 v 63.552 c 0,26.496 -17.08801,44.16 -42.81601,44.16 -24.384,0 -40.704,-18.624 -40.704,-46.656 v -73.344 c 0.192,-5.184 4.608,-9.216 9.984,-9.216 h 3.264 v -1.92 h -38.976 v 1.92 h 3.072 c 5.568,0 9.984,4.032 10.17601,9.6 v 0 75.84 c 0,29.952 21.31199,49.728 53.18399,49.728 31.10401,0 51.648,-19.968 51.648,-50.112 v -63.936 c 0.19201,-35.712 18.432,-53.951996 45.696,-53.951996 v -1.92 c -32.64,-1.344 -54.52799,17.663996 -54.52799,56.255996 z"
         style="font-style:normal;font-variant:normal;font-weight:normal;font-stretch:normal;font-size:192px;font-family:'Cinzel Decorative';-inkscape-font-specification:'Cinzel Decorative';fill:#ffffff;fill-opacity:1"
         id="path1109"
         inkscape:connector-curvature="0" />
      <path
         d="m 420.19137,123.97148 h -39.552 v 1.92 h 3.456 c 6.528,0 11.712,5.184 11.904,11.712 v 0 95.232 l -104.448,-111.552 -0.192,-0.192 h -1.728 c 0,0 1.728,10.944 1.728,24 v 99.84 c -0.192,6.336 -5.37599,11.712 -11.904,11.712 0,0 -3.456,0 -3.456,0 v 1.92 h 39.36 v -1.92 c 0,0 -3.456,0 -3.456,0 -6.52799,0 -11.712,-5.184 -11.904,-11.52 v -95.616 l 104.832,111.552 h 1.728 c 0,0 -1.92,-12.096 -1.92,-24.384 v -99.264 c 0.384,-6.336 5.56801,-11.52 11.904,-11.52 0,0 3.648,0 3.648,0 z"
         style="font-style:normal;font-variant:normal;font-weight:normal;font-stretch:normal;font-size:192px;font-family:'Cinzel Decorative';-inkscape-font-specification:'Cinzel Decorative';fill:#ffffff;fill-opacity:1"
         id="path1111"
         inkscape:connector-curvature="0" />
      <path
         d="m 503.52537,124.16348 h -49.536 v -0.192 h -15.36 v 1.92 h 2.49601 c 6.33599,0 11.51999,4.8 12.096,11.136 v 107.52 c 0,6.72 -5.56801,12.096 -12.28801,12.096 l -2.304,-0.192 v 1.92 h 15.168 v 0 h 49.728 c 41.08801,0 68.92801,-26.688 68.92801,-67.008 0,-40.32 -27.84,-67.2 -68.92801,-67.2 z m 0,128.448 h -37.824 v -122.688 h 37.824 c 32.64001,0 54.528,24.576 54.528,61.44 0,36.672 -21.69599,61.248 -54.528,61.248 z"
         style="font-style:normal;font-variant:normal;font-weight:normal;font-stretch:normal;font-size:192px;font-family:'Cinzel Decorative';-inkscape-font-specification:'Cinzel Decorative';fill:#ffffff;fill-opacity:1"
         id="path1113"
         inkscape:connector-curvature="0" />
      <path
         d="m 678.45838,227.45948 c -5.95201,14.592 -13.63201,25.152 -33.98401,25.152 h -27.648 v -57.6 h 32.64 c 5.184,0.192 9.216,4.416 9.216,9.6 v 2.688 h 1.92 v -30.336 h -1.92 v 2.88 c 0,5.184 -4.22399,9.408 -9.408,9.408 v 0 h -32.448 v -59.328 h 39.168 c 6.144,0.384 10.752,5.376 10.752,11.52 v 3.264 l 1.92001,0.192 v -15.552 0 -3.072 0 -5.76 c -3.45601,1.536 -14.592,3.456 -22.848,3.456 h -40.70401 v 0 h -15.36 v 1.92 h 2.496 c 6.336,0 11.52001,4.992 12.096,11.136 v 107.52 c 0,6.528 -5.568,12.096 -12.288,12.096 l -2.304,-0.192 v 1.92 h 79.48801 l 11.13599,-30.912 z"
         style="font-style:normal;font-variant:normal;font-weight:normal;font-stretch:normal;font-size:192px;font-family:'Cinzel Decorative';-inkscape-font-specification:'Cinzel Decorative';fill:#ffffff;fill-opacity:1"
         id="path1115"
         inkscape:connector-curvature="0" />
      <path
         d="m 792.77638,242.05148 c -7.29601,-8.064 -24,-31.872 -24,-31.872 -3.64801,-5.184 -9.60001,-11.52 -13.63201,-13.44 18.432,0 32.64,-18.048 32.64,-36.672 0,-22.272 -14.4,-36.096 -37.632,-36.096 h -36.48 v 0 h -15.168 v 1.92 h 2.304 c 6.72,0 12.288,5.376 12.288,12.096 v 0 106.56 c -0.192,6.72 -5.568,12.096 -12.288,12.096 l -2.304,-0.192 v 1.92 h 41.856 v -1.92 l -2.496,0.192 c -6.72,0 -12.096,-5.568 -12.288,-12.096 v 0 -114.432 c 2.496,0 14.208,-0.384 24,0 14.208,0.768 23.232,11.904 23.808,29.376 0,4.224 -0.384,8.832 -1.34399,11.52 -5.376,17.28 -19.96801,19.584 -29.952,19.968 -5.76,0 -10.17601,0 -10.17601,0 v 1.728 c 7.10401,0 12.67201,6.72 17.664,13.056 1.53601,1.728 23.232,33.216 25.34401,35.904 5.952,7.104 15.552,16.704 33.408,16.704 h 10.55999 v -1.92 c -11.13599,0 -18.24,-5.952 -26.11199,-14.4 z"
         style="font-style:normal;font-variant:normal;font-weight:normal;font-stretch:normal;font-size:192px;font-family:'Cinzel Decorative';-inkscape-font-specification:'Cinzel Decorative';fill:#ffffff;fill-opacity:1"
         id="path1117"
         inkscape:connector-curvature="0" />
      <path
         d="m 911.70838,227.45948 c -5.95201,14.592 -13.63201,25.152 -33.98401,25.152 h -27.648 v -114.624 c 0.192,-6.528 5.568,-11.904 12.288,-11.904 h 2.496 v -1.92 h -14.784 v -0.192 h -12.48 v 0.192 h -14.592 v 1.92 h 2.304 c 6.72,0 12.288,5.376 12.288,11.904 v 0 106.56 c 0,6.528 -5.568,12.096 -12.288,12.096 l -2.304,-0.192 v 1.92 h 79.48801 l 11.13599,-30.912 z"
         style="font-style:normal;font-variant:normal;font-weight:normal;font-stretch:normal;font-size:192px;font-family:'Cinzel Decorative';-inkscape-font-specification:'Cinzel Decorative';fill:#ffffff;fill-opacity:1"
         id="path1119"
         inkscape:connector-curvature="0" />
      <path
         d="m 997.14238,121.28348 c -43.58401,0 -73.72801,28.032 -73.72801,70.08 0,41.856 30.144,69.696 73.72801,69.696 43.58402,0 73.72802,-27.84 73.72802,-69.696 0,-42.048 -30.144,-70.08 -73.72802,-70.08 z m 0,134.208 c -35.328,0 -58.944,-25.728 -58.944,-64.128 0,-38.592 23.616,-64.32 58.944,-64.32 35.32802,0 58.94402,25.728 58.94402,64.32 0,38.4 -23.616,64.128 -58.94402,64.128 z"
         style="font-style:normal;font-variant:normal;font-weight:normal;font-stretch:normal;font-size:192px;font-family:'Cinzel Decorative';-inkscape-font-specification:'Cinzel Decorative';fill:#ffffff;fill-opacity:1"
         id="path1121"
         inkscape:connector-curvature="0" />
      <path
         d="m 1180.5264,242.05148 c -7.296,-8.064 -24,-31.872 -24,-31.872 -3.648,-5.184 -9.6,-11.52 -13.632,-13.44 18.432,0 32.64,-18.048 32.64,-36.672 0,-22.272 -14.4,-36.096 -37.632,-36.096 h -36.48 v 0 h -15.168 v 1.92 h 2.304 c 6.72,0 12.288,5.376 12.288,12.096 v 0 106.56 c -0.192,6.72 -5.568,12.096 -12.288,12.096 l -2.304,-0.192 v 1.92 h 41.856 v -1.92 l -2.496,0.192 c -6.72,0 -12.096,-5.568 -12.288,-12.096 v 0 -114.432 c 2.496,0 14.208,-0.384 24,0 14.208,0.768 23.232,11.904 23.808,29.376 0,4.224 -0.384,8.832 -1.344,11.52 -5.376,17.28 -19.968,19.584 -29.952,19.968 -5.76,0 -10.176,0 -10.176,0 v 1.728 c 7.104,0 12.672,6.72 17.664,13.056 1.536,1.728 23.232,33.216 25.344,35.904 5.952,7.104 15.552,16.704 33.408,16.704 h 10.56 v -1.92 c -11.136,0 -18.24,-5.952 -26.112,-14.4 z"
         style="font-style:normal;font-variant:normal;font-weight:normal;font-stretch:normal;font-size:192px;font-family:'Cinzel Decorative';-inkscape-font-specification:'Cinzel Decorative';fill:#ffffff;fill-opacity:1"
         id="path1123"
         inkscape:connector-curvature="0" />
      <path
         d="m 1285.3074,124.16348 c -16.896,-0.384 -31.104,-0.768 -43.2,-0.576 -32.64,0.576 -48.768,5.568 -56.448,28.608 l 2.112,0.768 c 6.336,-11.904 14.016,-22.272 47.232,-23.232 v 115.776 c -0.576,6.144 -5.76,10.944 -12.096,10.944 h -2.496 v 1.92 h 21.888 v 0 h 43.008 c 41.088,0 68.928,-26.688 68.928,-67.2 0,-40.128 -27.84,-66.24 -68.928,-67.008 z m 0,128.64 h -37.824 v -123.072 c 10.56,0.192 37.824,0.192 37.824,0.192 32.832,0 54.528,24.576 54.528,61.248 0,37.056 -21.888,61.632 -54.528,61.632 z"
         style="font-style:normal;font-variant:normal;font-weight:normal;font-stretch:normal;font-size:192px;font-family:'Cinzel Decorative';-inkscape-font-specification:'Cinzel Decorative';fill:#ffffff;fill-opacity:1"
         id="path1125"
         inkscape:connector-curvature="0" />
    </g>
  </g>
</svg>
